<svg xmlns="http://www.w3.org/2000/svg" xmlns:xlink="http://www.w3.org/1999/xlink" viewBox="0 0 627.97 397.39"><style><![CDATA[.Aw,.Ak{mix-blend-mode:multiply}.BM{mix-blend-mode:screen}.CD{fill:#fff}.CE{fill:#ffb600}.CF{fill:#b5311c}.CG{fill:#ff9000}.CH{fill:none}.CI{fill:#59d3d3}.CJ{fill:#ffc024}.CK{fill:#0d0d0d}.CL{opacity:.5}.CM{stroke-linecap:round}.CN{fill:#fcd644}.CO{fill:#303030}.CP{fill:#e05a3b}.CQ{fill:#5e9114}.CR{stroke-linejoin:round}.CS{fill:#c0fffd}.CT{fill:#842323}.CU{fill:#9e9e9e}.CV{stroke-width:.85}.CW{fill:#557a1c}.CX{fill:#fcba72}.CY{fill:#2b3e4f}.CZ{fill:#d8831e}.Ca{fill:#58600f}.Cb{fill:#134663}.Cc{fill:#d8e2ed}.Cd{fill:#edc23b}.Ce{fill:#b3bbc4}.Cf{stroke-width:.76}.Cg{stroke:#79a140}]]></style><defs><linearGradient id="A" x1="338.3" y1="300.4" x2="439.25" y2="300.4" gradientUnits="userSpaceOnUse"><stop offset=".26" stop-color="#666"/><stop offset=".41" stop-color="#7b7b7b"/><stop offset=".72" stop-color="#b1b1b1"/><stop offset="1" stop-color="#e6e6e6"/></linearGradient><linearGradient id="B" x1="338.3" y1="272.81" x2="479.97" y2="272.81" gradientUnits="userSpaceOnUse"><stop offset="0" stop-color="#c0bff6"/><stop offset=".01" stop-color="#c0bff6"/><stop offset=".37" stop-color="#d7d6fa"/><stop offset=".7" stop-color="#e4e4fc"/><stop offset="1" stop-color="#e9e9fd"/></linearGradient><linearGradient id="C" x1="235.3" y1="86.66" x2="320.69" y2="86.66" xlink:href="#A"/><linearGradient id="D" x1="235.3" y1="63.32" x2="355.13" y2="63.32" xlink:href="#B"/><linearGradient id="E" x1="104.54" y1="146.76" x2="189.93" y2="146.76" xlink:href="#A"/><linearGradient id="F" x1="104.54" y1="123.42" x2="224.37" y2="123.42" xlink:href="#B"/><linearGradient id="G" x1="0" y1="234.01" x2="81.22" y2="234.01" xlink:href="#A"/><linearGradient id="H" x1="0" y1="211.81" x2="113.97" y2="211.81" xlink:href="#B"/><linearGradient id="I" x1="139" y1="334.01" x2="220.22" y2="334.01" xlink:href="#A"/><linearGradient id="J" x1="139" y1="311.81" x2="252.97" y2="311.81" xlink:href="#B"/><linearGradient id="K" x1="225.534" y1="194.959" x2="248.164" y2="195.022" gradientUnits="userSpaceOnUse"><stop offset="0" stop-color="#58c6c3"/><stop offset=".94" stop-color="#27323e"/></linearGradient><linearGradient id="L" x1="270.829" y1="171.815" x2="291.279" y2="171.873" xlink:href="#K"/><linearGradient id="M" x1="293.837" y1="158.36" x2="315.127" y2="158.419" xlink:href="#K"/><linearGradient id="N" x1="250.01" y1="185.887" x2="269.12" y2="185.941" xlink:href="#K"/><linearGradient id="O" x1="201.676" y1="197.772" x2="223.506" y2="197.833" xlink:href="#K"/><linearGradient id="P" x1="356" y1="188.99" x2="440.07" y2="188.99" xlink:href="#A"/><linearGradient id="Q" x1="356" y1="166.01" x2="473.97" y2="166.01" xlink:href="#B"/><radialGradient id="R" cx="423.92" cy="155.82" r="8.38" gradientUnits="userSpaceOnUse"><stop offset="0" stop-color="#3c4f5d"/><stop offset=".94" stop-color="#27323e"/></radialGradient><radialGradient id="S" cy="150.14" r="8.49" xlink:href="#R"/><radialGradient id="T" cy="149.06" r="8.49" xlink:href="#R"/><radialGradient id="U" cx="423.95" cy="139" r="8.4" xlink:href="#R"/><radialGradient id="V" cx="406.82" cy="163.22" r="8.02" xlink:href="#R"/><radialGradient id="W" cx="441.05" cy="162.82" r="11.55" xlink:href="#R"/><radialGradient id="X" cx="441.05" cy="157.62" r="11.55" xlink:href="#R"/><linearGradient id="Y" x1="380.35" y1="169.26" x2="384.42" y2="169.26" xlink:href="#R"/><linearGradient id="Z" x1="380.43" y1="170.34" x2="381.23" y2="170.34" xlink:href="#R"/><radialGradient id="a" cx="394.84" cy="181.8" r="12.53" xlink:href="#R"/><linearGradient id="b" x1="374.51" y1="172.12" x2="417.57" y2="180.06" xlink:href="#R"/><linearGradient id="c" x1="369.4" y1="154.06" x2="390.18" y2="154.06" xlink:href="#R"/><linearGradient id="d" x1="371.18" y1="155.35" x2="394.44" y2="155.35" xlink:href="#R"/><linearGradient id="e" x1="514" y1="194.01" x2="595.22" y2="194.01" xlink:href="#A"/><linearGradient id="f" x1="514" y1="171.81" x2="627.97" y2="171.81" xlink:href="#B"/><linearGradient id="g" x1="518.38" y1="153.5" x2="573.09" y2="153.5" xlink:href="#K"/><linearGradient id="h" x1="525.7" y1="159.67" x2="530.73" y2="159.67" xlink:href="#K"/><linearGradient id="i" x1="523.95" y1="170.81" x2="530.31" y2="170.81" xlink:href="#K"/><clipPath id="j"><path d="M577.5 151.94l-.6.35a1.06 1.06 0 0 1 1.07.1l.6-.35a1.06 1.06 0 0 0-1.07-.1z" class="CH"/></clipPath><clipPath id="k"><path d="M579 155.94l.6-.35a1 1 0 0 0 .43-1 3.28 3.28 0 0 0-1.49-2.58l-.6.35a3.28 3.28 0 0 1 1.49 2.58 1 1 0 0 1-.43 1z" class="CH"/></clipPath><clipPath id="l"><path d="M572.25 149l-.6.35a1.06 1.06 0 0 1 1.07.1l.6-.35a1.06 1.06 0 0 0-1.07-.1z" class="CH"/></clipPath><clipPath id="m"><path d="M573.76 153l.6-.35a1 1 0 0 0 .43-1 3.28 3.28 0 0 0-1.49-2.58l-.6.35a3.28 3.28 0 0 1 1.49 2.58 1 1 0 0 1-.43 1z" class="CH"/></clipPath><clipPath id="n"><path d="M566.68 145.77l-.6.35a1.06 1.06 0 0 1 1.07.1l.6-.35a1.06 1.06 0 0 0-1.07-.1z" class="CH"/></clipPath><clipPath id="o"><path d="M568.2 149.77l.6-.35a1 1 0 0 0 .43-1 3.28 3.28 0 0 0-1.49-2.58l-.6.35a3.28 3.28 0 0 1 1.49 2.58 1 1 0 0 1-.43 1z" class="CH"/></clipPath><clipPath id="p"><path d="M561.6 143l-.6.35a1.06 1.06 0 0 1 1.07.1l.6-.35a1.06 1.06 0 0 0-1.07-.1z" class="CH"/></clipPath><clipPath id="q"><path d="M563.1 147l.6-.35a1 1 0 0 0 .43-1 3.28 3.28 0 0 0-1.49-2.58l-.6.35a3.28 3.28 0 0 1 1.49 2.58 1 1 0 0 1-.43 1z" class="CH"/></clipPath><linearGradient id="r" x1="299.33" y1="49.52" x2="299.33" y2="87.38" xlink:href="#K"/><linearGradient id="s" x1="281.06" y1="18.98" x2="269.22" y2="58.95" xlink:href="#K"/><linearGradient id="t" x1="128.26" y1="104.19" x2="177.03" y2="104.19" xlink:href="#K"/><linearGradient id="u" x1="124.54" y1="97.22" x2="173.66" y2="97.22" xlink:href="#K"/><linearGradient id="v" x1="124.67" y1="105.89" x2="173.66" y2="105.89" xlink:href="#K"/><linearGradient id="w" x1="173.2" y1="107.37" x2="128.7" y2="79.12" xlink:href="#K"/><linearGradient id="x" x1="209.353" y1="288.435" x2="196.63" y2="312.025" xlink:href="#K"/><linearGradient id="y" x1="212.732" y1="290.251" x2="200.008" y2="313.841" xlink:href="#K"/><linearGradient id="z" x1="216.124" y1="292.084" x2="203.401" y2="315.674" xlink:href="#K"/><linearGradient id="AA" x1="219.517" y1="293.917" x2="206.803" y2="317.505" xlink:href="#K"/><linearGradient id="AB" x1="222.933" y1="295.765" x2="210.219" y2="319.353" xlink:href="#K"/><path id="AC" d="M453.35 158.8a10.66 10.66 0 0 0-2.3-1.75c-5.52-3.2-14.48-3.2-20 0a10.66 10.66 0 0 0-2.29 1.75v-.45h-1.85v4.55c0 2.07 1.4 4.13 4.14 5.7 5.52 3.2 14.48 3.2 20 0 2.76-1.6 4.14-3.68 4.14-5.77v-4.48h-1.85z"/><path id="AD" d="M556.06 131.46l-23.23 13.4a1.59 1.59 0 0 1-1.44 0l-2.52-1.45a.44.44 0 0 1 0-.83l23.23-13.4a1.59 1.59 0 0 1 1.44 0l2.52 1.45a.44.44 0 0 1 0 .83z"/><path id="AE" d="M556.06 130.63l-2.52-1.45a1.5 1.5 0 0 0-.79-.17v4.36l3.3-1.9a.44.44 0 0 0 0-.83z"/><path id="AF" d="M540.67 123.5a12.43 12.43 0 0 0-4.45 4.09l3.23 1.86a12.43 12.43 0 0 1 4.45-4.09c1.94-1.12 3-1.4 4.45-1l-3.23-1.86c-1.44-.4-2.5-.12-4.45 1z"/><path id="AG" d="M578 152.4l.6-.35a1.19 1.19 0 0 0-.88-.18l-.6.35a1.19 1.19 0 0 1 .88.18z"/><path id="AH" d="M579 155.94l.6-.35a1 1 0 0 0 .43-1 3 3 0 0 0-.39-1.4l-.6.35a3 3 0 0 1 .39 1.4 1 1 0 0 1-.43 1z"/><path id="AI" d="M579.07 153.58l.6-.35a3.09 3.09 0 0 0-1.1-1.19l-.6.35a3.09 3.09 0 0 1 1.1 1.19z"/><path id="AJ" d="M571.83 149.27l.6-.35a.73.73 0 0 0-.19.08l-.6.35a.73.73 0 0 1 .19-.08z"/><path id="AK" d="M572.7 149.45c-.82-.48-1.5-.1-1.5.86a3.29 3.29 0 0 0 1.49 2.58c.83.48 1.5.1 1.5-.85a3.28 3.28 0 0 0-1.49-2.59z"/><path id="AL" d="M388.64 255.45a12.22 12.22 0 0 0-6 1.41c-1.38.8-2.14 1.8-2.14 2.8s.77 2 2.18 2.84a13.42 13.42 0 0 0 12 0c1.38-.8 2.14-1.8 2.14-2.8s-.77-2-2.18-2.84a12.32 12.32 0 0 0-6-1.41z"/><path id="AM" d="M406.2 255c4.74 2.74 4.77 7.18.06 9.92s-12.38 2.74-17.12 0-4.77-7.18-.06-9.92 12.38-2.7 17.12 0z"/><path id="AN" d="M406.2 253.72c4.74 2.74 4.77 7.18.06 9.92s-12.38 2.74-17.12 0-4.77-7.18-.06-9.92 12.38-2.72 17.12 0z"/><path id="AO" d="M425.56 252.5c4.74 2.74 4.77 7.18.06 9.92s-12.38 2.74-17.12 0-4.77-7.18-.06-9.92 12.37-2.74 17.12 0z"/><path id="AP" d="M399.7 250.13c4.74 2.74 4.77 7.18.06 9.92s-12.38 2.74-17.12 0-4.76-7.18-.06-9.92 12.4-2.74 17.12 0z"/><path id="AQ" d="M309.42 51.95l3.7 2.14-3.83 2.22-3.7-2.14 3.83-2.22z"/><path id="AR" d="M305.2 43.9l3.7 2.13-3.83 2.23-3.7-2.14 3.83-2.22z"/><path id="AS" d="M303.47 50.15l3.7 2.14-3.83 2.22-3.7-2.13 3.83-2.23z"/><path id="AT" d="M76.1 214.63a14.87 14.87 0 0 1-13.5-.14 5 5 0 0 1-2.6-3.35c-.22 1.53.65 3.1 2.62 4.3a14.87 14.87 0 0 0 13.5.14c2.16-1.2 3.14-2.86 2.9-4.46a5.14 5.14 0 0 1-2.92 3.52z"/><path id="AU" d="M46.7 219.05a11.93 11.93 0 0 1-10.83-.11 4 4 0 0 1-2.1-2.69c-.18 1.22.52 2.48 2.1 3.44a11.93 11.93 0 0 0 10.83.11c1.74-1 2.5-2.3 2.33-3.58a4.13 4.13 0 0 1-2.33 2.83z"/><path id="AV" d="M154.96 87.67l47.73 27.56-29.03 16.8-47.74-27.57 29.04-16.8z"/><path id="AW" d="M173.66 122.22l.4-.24.88.24s-2.9 5.3-.82 9.8l-.47 1.56c-5.1-4.2 0-11.37 0-11.37z"/><path id="AX" d="M154 92.07c1.2.7 1.14 1.74-.15 2.5a4.58 4.58 0 0 1-4.31.09c-1.2-.7-1.12-1.73.17-2.48a4.55 4.55 0 0 1 4.29-.1zm-3 1.78a2 2 0 0 0 1.83.05c.46-.27.43-.72-.13-1a1.93 1.93 0 0 0-1.79-.07c-.5.24-.5.7.1 1.02z"/><path id="AY" d="M158.68 89.4c1.2.7 1.14 1.74-.15 2.5a4.58 4.58 0 0 1-4.31.09c-1.2-.7-1.12-1.73.17-2.48a4.55 4.55 0 0 1 4.29-.1zm-3.08 1.78a2 2 0 0 0 1.83.05c.46-.27.43-.72-.13-1a1.93 1.93 0 0 0-1.79-.07c-.5.24-.5.7.1 1.02z"/><path id="AZ" d="M203.57 298.3l-4 13.2a1 1 0 0 1-1.24.66 1 1 0 0 1-.66-1.24l4-13.2a1 1 0 0 1 1.24-.66 1 1 0 0 1 .66 1.24z"/><path id="Aa" d="M205.2 299.72l-3.47 11.5a1 1 0 0 1-1.23.66 1 1 0 0 1-.66-1.23l3.47-11.5a1 1 0 0 1 1.23-.66 1 1 0 0 1 .66 1.23z"/><path id="Ab" d="M208.8 301.3l-3.2 10.58a1 1 0 0 1-1.23.66 1 1 0 0 1-.66-1.23l3.2-10.58a1 1 0 0 1 1.23-.66 1 1 0 0 1 .66 1.23z"/><path id="Ac" d="M212.4 303l-2.87 9.5a1 1 0 0 1-1.23.66 1 1 0 0 1-.66-1.23l2.87-9.5a1 1 0 0 1 1.23-.66 1 1 0 0 1 .66 1.23z"/><path id="Ad" d="M216 304.65l-2.62 8.65a1 1 0 0 1-1.23.66 1 1 0 0 1-.66-1.23l2.62-8.65a1 1 0 0 1 1.23-.66 1 1 0 0 1 .66 1.23z"/></defs><g opacity=".4" fill="#42e8e0"><path d="M125.3 274.76a.45.45 0 0 1-.22-.06l-90.4-52.2a.45.45 0 1 1 .45-.77l90.16 52.05 213.93-123.5a.45.45 0 0 1 .45 0l142.55 82.3 49.2-28.4a.45.45 0 0 1 .45.77l-49.43 28.54a.45.45 0 0 1-.45 0l-142.55-82.3L125.52 274.7a.45.45 0 0 1-.22.06z"/><path d="M471.8 311a.45.45 0 0 1-.22-.06l-298.9-172.57a.45.45 0 0 1 0-.77L325.5 49.36a.45.45 0 1 1 .45.77L173.77 138 471.8 310l76.2-44a.45.45 0 0 1 .45 0l21.32 12.3a.45.45 0 1 1-.45.77L548.2 267 472 311a.45.45 0 0 1-.22 0z"/><path d="M394.44 397.4a.44.44 0 0 1-.22-.06L303 344.65a.45.45 0 0 1 0-.77l113.5-65.52a.45.45 0 1 1 .45.77L304.1 344.27l90.57 52.3a.45.45 0 0 1-.22.83z"/><path d="M346.9 319.7a.44.44 0 0 1-.22-.06L34.7 139a.45.45 0 1 1 .45-.77l312 180.63a.45.45 0 0 1-.22.83z"/><path d="M230 302.43a.45.45 0 0 1-.22-.06l-129.38-74.7a.45.45 0 0 1 0-.77l113.48-65.52a.45.45 0 1 1 .45.77l-112.85 65.13L230 301.46l308.2-177.94a.45.45 0 1 1 .45.77L230.2 302.37a.45.45 0 0 1-.19.06z"/></g><path d="M479.98 287.1v-14.3l-70.84 39.08-70.84-39.08v14.3l70.84 40.9 70.84-40.9z" fill="url(#A)"/><path d="M409.14 313.7l-70.84-40.9 70.84-40.9 70.84 40.9-70.84 40.9z" fill="url(#B)"/><path d="M409.14 312.53l-69.82-40.3-1.02.6 70.84 40.9 70.84-40.9-1.03-.6-69.8 40.3z" class="CD CL"/><path d="M355.13 75.4v-12.1l-59.9 33.06-59.92-33.06v12.1l59.92 34.6 59.9-34.6z" fill="url(#C)"/><path d="M295.22 97.9l-59.92-34.6 59.92-34.6 59.9 34.6-59.9 34.6z" fill="url(#D)"/><path d="M295.22 96.9l-59.05-34.1-.87.5 59.92 34.6 59.9-34.6-.86-.5-59.05 34.1z" class="CD CL"/><path d="M224.38 135.5v-12.1l-59.92 33.06-59.92-33.06v12.1l59.92 34.6 59.92-34.6z" fill="url(#E)"/><path d="M164.46 158l-59.92-34.6 59.92-34.6 59.92 34.6-59.92 34.6z" fill="url(#F)"/><path d="M164.46 157.02l-59.05-34.1-.87.5 59.92 34.6 59.92-34.6-.87-.5-59.05 34.1z" class="CD CL"/><path d="M113.97 223.3v-11.5L57 243.26 0 211.8v11.5l57 32.9 56.98-32.9z" fill="url(#G)"/><path d="M57 244.72L0 211.8l57-32.9 56.98 32.9L57 244.72z" fill="url(#H)"/><path d="M57 243.77L.82 211.34l-.82.47 57 32.9 56.98-32.9-.82-.47L57 243.77z" class="CD CL"/><path d="M252.97 323.3v-11.5L196 343.26l-57-31.45v11.5l57 32.9 56.98-32.9z" fill="url(#I)"/><path d="M196 344.7l-57-32.9 57-32.9 56.98 32.9L196 344.7z" fill="url(#J)"/><path d="M196 343.77l-56.17-32.43-.82.47 57 32.9 56.98-32.9-.82-.47L196 343.77z" class="CD CL"/><path d="M237,212.77q-4.75,2.65-8.09-.76t-3.37-10.65a33.35,33.35,0,0,1,3.13-14.24q3.19-7,7.85-9.75t8.1.44q3.43,3.23,3.57,10.56A33.23,33.23,0,0,1,245,202.92Q241.75,210.1,237,212.77Zm2.87-14.68a13,13,0,0,0,1.21-5.63,5.7,5.7,0,0,0-1.35-4.14,2.32,2.32,0,0,0-3.05-.25,7.9,7.9,0,0,0-3,3.73,13,13,0,0,0-1.21,5.59,5.78,5.78,0,0,0,1.32,4.16,2.31,2.31,0,0,0,3,.29A7.85,7.85,0,0,0,239.84,198.08Z" fill="url(#K)"/><path d="M283.06 187.74a11.19 11.19 0 0 1-4.68 1.54 5.59 5.59 0 0 1-3.81-1.08 8.24 8.24 0 0 1-2.63-3.86 21.72 21.72 0 0 1-1.12-6.84 29.81 29.81 0 0 1 .67-7.59 27.08 27.08 0 0 1 2.18-6.2 20.8 20.8 0 0 1 3.23-4.71 16.83 16.83 0 0 1 3.8-3.15 9 9 0 0 1 4.08-1.38 5.22 5.22 0 0 1 3.28.89 6.59 6.59 0 0 1 2.25 3 14.27 14.27 0 0 1 1 4.92 7.86 7.86 0 0 1-.68 3.76 7.78 7.78 0 0 1-2.21 2.76L278 178.06a2.52 2.52 0 0 0 2 2.06 5.2 5.2 0 0 0 3.34-.82 15 15 0 0 0 3.28-2.54 19.68 19.68 0 0 0 2.48-3 2.4 2.4 0 0 1 1.23 1.13 4.57 4.57 0 0 1 .57 2.16 8.28 8.28 0 0 1-1.64 5.31 15.7 15.7 0 0 1-3 3.21 24.46 24.46 0 0 1-3.2 2.17zm-2.06-24.2a5.92 5.92 0 0 0-1.72 1.51 8.58 8.58 0 0 0-1.15 2 10.37 10.37 0 0 0-.63 2.15 12.63 12.63 0 0 0-.2 2.13l7.13-5.9a3.26 3.26 0 0 0-1-2q-.9-.8-2.43.1z" fill="url(#L)"/><path d="M306.8 174.48a12 12 0 0 1-4.89 1.64 6 6 0 0 1-4-1 8.31 8.31 0 0 1-2.8-3.88 21.34 21.34 0 0 1-1.25-6.92 29.32 29.32 0 0 1 .62-7.71 27 27 0 0 1 2.22-6.32 21.19 21.19 0 0 1 3.32-4.84 17.63 17.63 0 0 1 3.95-3.25 9.65 9.65 0 0 1 4.26-1.47 5.6 5.6 0 0 1 3.44.85 6.68 6.68 0 0 1 2.4 3 14 14 0 0 1 1.07 5 7.76 7.76 0 0 1-.67 3.82 8 8 0 0 1-2.28 2.83l-10.78 8.6a2.59 2.59 0 0 0 2.12 2.05 5.61 5.61 0 0 0 3.49-.89 15.73 15.73 0 0 0 3.41-2.62 20.24 20.24 0 0 0 2.58-3.16 2.48 2.48 0 0 1 1.3 1.12 4.51 4.51 0 0 1 .62 2.18 8.23 8.23 0 0 1-1.65 5.41 16.25 16.25 0 0 1-3.15 3.3 25.83 25.83 0 0 1-3.33 2.27zM304.33 150a6.18 6.18 0 0 0-1.79 1.56 8.69 8.69 0 0 0-1.18 2 10.29 10.29 0 0 0-.64 2.19 12.42 12.42 0 0 0-.19 2.16l7.4-6.1a3.26 3.26 0 0 0-1.09-2q-.84-.8-2.5.2z" fill="url(#M)"/><path d="M268.58 176.85q-.17-5.76-3-8.26-2.83-2.5-6.6-.24a12.15 12.15 0 0 0-3.22 2.74 1.18 1.18 0 0 0-.25-.19 1.41 1.41 0 0 0-1.14 0 7.75 7.75 0 0 0-1.5.71 14 14 0 0 0-1.68 1.16 12.6 12.6 0 0 0-1.18 1l.08 4v.7l.44 22.36a7.25 7.25 0 0 0 .06.82 6.51 6.51 0 0 0 .27 1.64 1.88 1.88 0 0 0 .74 1.07 1.41 1.41 0 0 0 1.15.09 5.62 5.62 0 0 0 .53-.19 3 3 0 0 0 .63-.27l.2-.13.16-.08a13.54 13.54 0 0 0 1.72-1.14 12.29 12.29 0 0 0 1.21-1l-.43-18.28a7.46 7.46 0 0 1 .69-3 4.67 4.67 0 0 1 1.77-2.2 1.42 1.42 0 0 1 1.83.12 3.29 3.29 0 0 1 .84 2.43l.35 13.76a7.86 7.86 0 0 0 .32 2.29 1.89 1.89 0 0 0 .76 1.07 1.46 1.46 0 0 0 1.18.08 6 6 0 0 0 .67-.24 3.15 3.15 0 0 0 .55-.24l.2-.13.14-.07a13.93 13.93 0 0 0 1.75-1.16 12.57 12.57 0 0 0 1.24-1.06l-.1-3.87v-.63z" fill="url(#N)"/><path d="M220.17 192.46q-3.23-3.23-7.76-.56a13.44 13.44 0 0 0-4.1 3.61v-28.13a8.23 8.23 0 0 0-.25-2.34 1.78 1.78 0 0 0-.71-1.07 1.34 1.34 0 0 0-1.14 0 7.78 7.78 0 0 0-1.52.75 14.45 14.45 0 0 0-1.71 1.23 13.31 13.31 0 0 0-1.21 1.11v5.98l-.16 55.3a8.17 8.17 0 0 0 .24 2.06 2.07 2.07 0 0 0 .72 1.18 1.35 1.35 0 0 0 1.16.13 5.49 5.49 0 0 0 .6-.21 2.91 2.91 0 0 0 .6-.25l.2-.13.15-.08a13.5 13.5 0 0 0 1.77-1.18 12.55 12.55 0 0 0 1.25-1.09v-.62a7 7 0 0 0 4.17-1.12q4.6-2.57 7.83-9.64a33.78 33.78 0 0 0 3.17-14.38q-.05-7.3-3.3-10.54zm-4.78 20a7.68 7.68 0 0 1-2.93 3.67 2.17 2.17 0 0 1-2.92-.34 5.87 5.87 0 0 1-1.23-4.14 13.18 13.18 0 0 1 1.22-5.52 7.73 7.73 0 0 1 2.9-3.65 2.18 2.18 0 0 1 2.92.29 5.79 5.79 0 0 1 1.25 4.13 13.17 13.17 0 0 1-1.21 5.59z" fill="url(#O)"/><path d="M243 212.83q-4.74 2.66-8.1-.74-3.35-3.4-3.4-10.64a33.35 33.35 0 0 1 3.09-14.25q3.17-7 7.83-9.77 4.66-2.77 8.1.42 3.44 3.22 3.6 10.55A33.23 33.23 0 0 1 251 203q-3.25 7.15-8 9.83zm2.82-14.7a13 13 0 0 0 1.18-5.64 5.7 5.7 0 0 0-1.36-4.14 2.32 2.32 0 0 0-3.05-.24 7.9 7.9 0 0 0-3 3.74 13 13 0 0 0-1.19 5.59 5.78 5.78 0 0 0 1.34 4.15 2.31 2.31 0 0 0 3 .29 7.85 7.85 0 0 0 3.06-3.75zM289 187.67a11.19 11.19 0 0 1-4.68 1.56 5.59 5.59 0 0 1-3.81-1.06 8.24 8.24 0 0 1-2.64-3.86 21.72 21.72 0 0 1-1.14-6.84 29.81 29.81 0 0 1 .65-7.59 27.08 27.08 0 0 1 2.16-6.21 20.8 20.8 0 0 1 3.21-4.74 16.83 16.83 0 0 1 3.79-3.16 9 9 0 0 1 4.08-1.4 5.22 5.22 0 0 1 3.28.88 6.59 6.59 0 0 1 2.26 3 14.27 14.27 0 0 1 1 4.92 7.86 7.86 0 0 1-.67 3.76 7.78 7.78 0 0 1-2.2 2.76l-10.36 8.3a2.52 2.52 0 0 0 2 2 5.2 5.2 0 0 0 3.34-.83 15 15 0 0 0 3.27-2.55 19.68 19.68 0 0 0 2.48-3 2.4 2.4 0 0 1 1.23 1.12 4.57 4.57 0 0 1 .58 2.16 8.28 8.28 0 0 1-1.62 5.32 15.7 15.7 0 0 1-3 3.22 24.46 24.46 0 0 1-3.21 2.23zm-2.15-24.2a5.92 5.92 0 0 0-1.72 1.51 8.58 8.58 0 0 0-1.14 2 10.37 10.37 0 0 0-.62 2.15 12.63 12.63 0 0 0-.2 2.13l7.1-5.92a3.26 3.26 0 0 0-1-2q-.88-.78-2.43.13zm25.85 10.88a12 12 0 0 1-4.89 1.65 6 6 0 0 1-4-1 8.31 8.31 0 0 1-2.81-3.87 21.34 21.34 0 0 1-1.27-6.92 29.32 29.32 0 0 1 .6-7.71 27 27 0 0 1 2.2-6.33 21.19 21.19 0 0 1 3.31-4.85 17.63 17.63 0 0 1 3.94-3.26 9.65 9.65 0 0 1 4.26-1.48 5.6 5.6 0 0 1 3.45.84 6.68 6.68 0 0 1 2.4 3 14 14 0 0 1 1.08 5 7.76 7.76 0 0 1-.66 3.82A8 8 0 0 1 318 156l-10.76 8.62a2.59 2.59 0 0 0 2.13 2 5.61 5.61 0 0 0 3.49-.9 15.73 15.73 0 0 0 3.4-2.63 20.24 20.24 0 0 0 2.56-3.09 2.48 2.48 0 0 1 1.31 1.12 4.51 4.51 0 0 1 .63 2.18 8.23 8.23 0 0 1-1.64 5.42 16.25 16.25 0 0 1-3.14 3.31 25.83 25.83 0 0 1-3.29 2.32zm-2.53-24.5a6.18 6.18 0 0 0-1.78 1.56 8.69 8.69 0 0 0-1.17 2 10.29 10.29 0 0 0-.63 2.19 12.42 12.42 0 0 0-.18 2.16l7.4-6.12a3.26 3.26 0 0 0-1.1-2q-.9-.74-2.53.2zm-35.67 26.97q-.18-5.76-3-8.25-2.82-2.5-6.6-.22a12.15 12.15 0 0 0-3.21 2.75 1.18 1.18 0 0 0-.25-.19 1.41 1.41 0 0 0-1.14 0 7.75 7.75 0 0 0-1.5.71 14 14 0 0 0-1.68 1.17 12.6 12.6 0 0 0-1.18 1.05l.1 4v.7l.5 22.36a7.25 7.25 0 0 0 .07.82 6.51 6.51 0 0 0 .28 1.64 1.88 1.88 0 0 0 .74 1.07 1.41 1.41 0 0 0 1.15.08 5.62 5.62 0 0 0 .53-.19 3 3 0 0 0 .62-.27l.2-.13.16-.08a13.54 13.54 0 0 0 1.71-1.15 12.29 12.29 0 0 0 1.21-1l-.25-9.77-.22-8.5a7.46 7.46 0 0 1 .68-3 4.67 4.67 0 0 1 1.76-2.21 1.42 1.42 0 0 1 1.83.12 3.29 3.29 0 0 1 .84 2.43l.4 13.76a7.86 7.86 0 0 0 .32 2.29 1.89 1.89 0 0 0 .77 1.07 1.46 1.46 0 0 0 1.18.07 6 6 0 0 0 .66-.25 3.15 3.15 0 0 0 .55-.24l.2-.13.14-.07a13.93 13.93 0 0 0 1.75-1.17A12.57 12.57 0 0 0 275 195l-.12-3.87v-.63zm-48.38 15.75q-3.24-3.22-7.76-.54a13.44 13.44 0 0 0-4.09 3.62l-.08-28.1a8.23 8.23 0 0 0-.26-2.34 1.78 1.78 0 0 0-.72-1.06 1.34 1.34 0 0 0-1.14 0 7.78 7.78 0 0 0-1.52.75 14.45 14.45 0 0 0-1.7 1.24 13.31 13.31 0 0 0-1.2 1.11v61.28a8.17 8.17 0 0 0 .25 2.06 2.07 2.07 0 0 0 .73 1.18 1.35 1.35 0 0 0 1.16.12 5.49 5.49 0 0 0 .6-.21 2.91 2.91 0 0 0 .6-.26l.2-.13.15-.08a13.5 13.5 0 0 0 1.76-1.19 12.55 12.55 0 0 0 1.25-1.09v-.62a7 7 0 0 0 4.17-1.13q4.6-2.58 7.8-9.66a33.78 33.78 0 0 0 3.13-14.38q-.07-7.32-3.34-10.56zm-4.73 20a7.68 7.68 0 0 1-2.92 3.67 2.17 2.17 0 0 1-2.92-.33 5.87 5.87 0 0 1-1.24-4.14 13.18 13.18 0 0 1 1.2-5.52 7.73 7.73 0 0 1 2.89-3.66 2.18 2.18 0 0 1 2.92.28 5.79 5.79 0 0 1 1.28 4.13 13.17 13.17 0 0 1-1.2 5.61z" class="CI"/><path d="M473.98 177.92V166l-59 32.55L356 166v11.9l59 34.06 59-34.05z" fill="url(#P)"/><path d="M415 200.07L356 166l59-34.05 59 34.05-59 34.06z" fill="url(#Q)"/><path d="M414.9 199.5l-58.06-33.98-.85.5 59 34.06 59-34.06-.93-.07-58.14 33.56z" class="CD CL"/><path d="M431.27 154.38a16.25 16.25 0 0 1-14.71 0c-2-1.17-3-2.7-3-4.25v5.36c0 1.54 1 3.07 3 4.25a16.25 16.25 0 0 0 14.71 0c2-1.17 3-2.7 3-4.25v-5.36c.05 1.54-.97 3.08-3 4.25z" fill="url(#R)"/><path d="M431.27 154.38a10.83 10.83 0 0 1-1 .5l.1 5.3q.45-.2.87-.45a6.76 6.76 0 0 0 2.46-2.25l-.17-5.1a7 7 0 0 1-2.26 1.99z" fill="#7857a8"/><path d="M431.27 145.9a16.25 16.25 0 0 0-14.71 0c-2 1.17-3 2.7-3 4.25s1 3.07 3 4.25a16.25 16.25 0 0 0 14.71 0c2-1.17 3-2.7 3-4.25s-.97-3.08-3-4.25z" fill="url(#S)"/><path d="M431.27 144.82a16.25 16.25 0 0 0-14.71 0c-2 1.17-3 2.7-3 4.25s1 3.07 3 4.25a16.25 16.25 0 0 0 14.71 0c2-1.17 3-2.7 3-4.25s-.97-3.07-3-4.25z" fill="url(#T)"/><path d="M432.37 154.1c-.53.3-.16 4 .1 3.74s.4-4.04-.1-3.74z" class="CD"/><path d="M413.45,110.68s-2,35.72,0,37.76a6,6,0,0,0,3.06,4.27,16.34,16.34,0,0,0,14.78,0c2-1.18,3.06-2.8,3.06-4.27,2.32-7.14,0-52.4,0-52.4Z" class="CN"/><path d="M415.26 113.84s-2.6 25.6-.84 34.22a5 5 0 0 0 2.34 2c-1.92-7.26-1.5-36.22-1.5-36.22z" fill="#8a62c7"/><path d="M433.56 101.95v-1.56l-17.96 12.8 17.96-11.25z" class="CD"/><path d="M431.82 139.92a17.52 17.52 0 0 1-15.83 0c-2.05-1.18-3.4-2.74-3.4-4.38a5.46 5.46 0 0 0 3.07 5 18.26 18.26 0 0 0 16.5 0 5.55 5.55 0 0 0 3.15-5c.01 1.64-1.43 3.2-3.48 4.38z" fill="url(#U)"/><path d="M423.92 116l.67 11.72 7.33-5.22-.67-11.73-7.33 5.23z" class="CD"/><path d="M413.45 160.67a14.66 14.66 0 0 1-13.26 0c-1.83-1.06-2.75-2.44-2.75-3.83v7.35c0 1.4.92 2.77 2.75 3.83a14.66 14.66 0 0 0 13.26 0c1.83-1.06 2.75-2.44 2.75-3.83v-7.35c-.01 1.38-.92 2.77-2.75 3.83z" fill="url(#V)"/><g fill="#96281d"><path d="M413.45 153a14.66 14.66 0 0 0-13.26 0c-1.83 1.06-2.75 2.44-2.75 3.83s.92 2.77 2.75 3.83a14.66 14.66 0 0 0 13.26 0c1.83-1.06 2.75-2.44 2.75-3.83s-.92-2.76-2.75-3.83z"/><path d="M413.45 152a14.66 14.66 0 0 0-13.26 0c-1.83 1.06-2.75 2.44-2.75 3.83s.92 2.77 2.75 3.83a14.66 14.66 0 0 0 13.26 0c1.83-1.06 2.75-2.44 2.75-3.83s-.92-2.73-2.75-3.83z"/></g><path d="M414.43 160.4c-.47.27-.15 6.15.1 5.9s.38-6.17-.1-5.9z" class="CD"/><path d="M397.44 100.5s-1.75 52.75 0 54.58a5.34 5.34 0 0 0 2.75 3.83 14.66 14.66 0 0 0 13.26 0c1.83-1.06 2.75-2.52 2.75-3.83 2.08-6.4 0-67.72 0-67.72z" class="CF"/><path d="M399.06 103.32s-2.34 43.7-.75 51.4a4.53 4.53 0 0 0 2.1 1.82c-1.72-6.55-1.35-53.23-1.35-53.23zm16.4-10.66v-1.4l-16.1 11.5 16.1-10.1zm-9.1 23.07l.42 11.95 8.7-5.56-.42-11.95-8.7 5.56z" class="CD"/><path d="M413.92 144.32a15.71 15.71 0 0 1-14.2 0c-1.84-1.06-3.06-2.46-3.06-3.93a4.9 4.9 0 0 0 2.76 4.45 16.38 16.38 0 0 0 14.8 0 5 5 0 0 0 2.87-4.45c0 1.48-1.33 2.87-3.17 3.93zm0 3.1a15.71 15.71 0 0 1-14.2 0c-1.84-1.06-3.06-2.46-3.06-3.93a4.9 4.9 0 0 0 2.76 4.45 16.38 16.38 0 0 0 14.8 0 5 5 0 0 0 2.78-4.45c0 1.5-1.24 2.87-3.08 3.93z" fill="#96281d"/><use xlink:href="#AC" fill="url(#W)"/><path d="M453.35 153.36a10.66 10.66 0 0 0-2.3-1.75c-5.52-3.2-14.48-3.2-20 0a10.66 10.66 0 0 0-2.29 1.75v-.45h-1.85v4.48c0 2.1 1.38 4.18 4.14 5.77 5.52 3.2 14.48 3.2 20 0 2.76-1.6 4.14-3.68 4.14-5.77v-4.5h-1.85z" fill="#822865"/><path d="M451.05 163c-5.52 3.2-14.48 3.2-20 0-2.73-1.58-4.1-3.64-4.14-5.7v1.14c0 2.1 1.38 4.18 4.14 5.77 5.52 3.2 14.48 3.2 20 0 2.76-1.6 4.14-3.68 4.14-5.77v-1.26c0 2.16-1.38 4.25-4.14 5.82z" class="CI"/><use xlink:href="#AC" y="-5.2" fill="url(#X)"/><path d="M451.05 147.13c-5.52-3.2-14.48-3.2-20 0-2.7 1.56-4.07 3.6-4.14 5.63v.14c0 2.1 1.38 4.18 4.14 5.77 5.52 3.2 14.48 3.2 20 0 2.76-1.6 4.14-3.68 4.14-5.77s-1.38-4.18-4.14-5.77z" class="CI"/><path d="M449.9 147.8c-4.88-2.82-12.8-2.82-17.67 0s-4.88 7.4 0 10.2 12.8 2.82 17.67 0 4.88-7.4 0-10.2z" class="CS"/><g class="CD"><ellipse cx="453.87" cy="158.92" rx=".18" ry="1.67"/><ellipse cx="453.87" cy="163.92" rx=".18" ry="1.3"/></g><path d="M383.82 167.55a.41.41 0 0 0-.44 0l-3 2.12.93 1.4 3-2.1a.45.45 0 0 0 .14-.36 1.33 1.33 0 0 0-.63-1.06z" fill="url(#Y)"/><path d="M380.83 169.64c-.33-.2-.6 0-.6.35a1.33 1.33 0 0 0 .6 1c.33.2.6 0 .6-.35a1.33 1.33 0 0 0-.6-1z" fill="#4f6a7a"/><path d="M380.83 169.88c-.22-.13-.4 0-.4.23a.89.89 0 0 0 .4.69c.22.13.4 0 .4-.23a.89.89 0 0 0-.4-.69z" fill="url(#Z)"/><path d="M406.65 182.7c-6.52 3.77-17.1 3.77-23.62 0-3.26-1.88-4.9-4.35-4.9-6.82v2.43c.1 2.4 1.72 4.77 4.88 6.6 6.52 3.77 17.1 3.77 23.62 0 3.17-1.83 4.8-4.2 4.88-6.6v-2.42c.02 2.47-1.6 4.94-4.87 6.82z" fill="url(#a)"/><path d="M406.65 169.05c-6.52-3.77-17.1-3.77-23.62 0-3.2 1.84-4.8 4.24-4.9 6.65v.17c0 2.47 1.63 4.94 4.9 6.82 6.52 3.77 17.1 3.77 23.62 0 3.26-1.88 4.9-4.35 4.9-6.82s-1.63-4.93-4.9-6.82z" fill="url(#b)"/><path d="M405.28 169.85c-5.77-3.33-15.1-3.33-20.88 0s-5.77 8.73 0 12.05 15.1 3.33 20.88 0 5.72-8.73 0-12.05z" class="CS"/><path d="M385.14 170.27c-5.16 3-5.16 7.8 0 10.78l18.68-10.78c-5.16-2.98-13.52-2.98-18.68 0z" class="CF"/><path d="M385.84 180.16s-3-5.3 0-9.8c-4.7 2.7-4.7 7.1 0 9.8z" fill="#ebeded"/><path d="M404.7 170.8l-8.82 5.1 8.82 5.1c4.87-2.8 4.87-7.37 0-10.18z" class="CT"/><path d="M386 181.57c4.87 2.8 12.77 2.8 17.64 0l-8.82-5.1z" class="CX"/><path d="M388.23 181.4c-.34-.07 6.4-4.38 6.4-4.38l-7.62 4.43a17 17 0 0 0 15.33 0s-8.45 3.24-14.1-.05zm10.57-6.12l5.37-3.78-7.28 4.2 7.38 4.5-5.5-4.07a.48.48 0 0 1 .03-.85z" fill="#ebeded"/><path d="M387.78 139.82c-1.94-.72-4.43-.4-7.14 1.17-6.2 3.6-11.25 12.3-11.25 19.48 0 2.94.85 5.16 2.28 6.52l1.72 1.68c-1.4-1.4-2.22-3.66-2.22-6.6 0-7.42 5.2-16.43 11.63-20.14 2.8-1.62 5.36-2 7.37-1.2z" fill="url(#c)"/><path d="M387.78 139.82c-1.94-.72-4.12-.07-6.83 1.5-6.2 3.6-11.13 12.43-11.13 19.6 0 2.94.42 4.7 1.85 6.06l1.72 1.68a9.26 9.26 0 0 1-2.68-6.58c0-7.42 4.86-16.75 11.3-20.45a10.34 10.34 0 0 1 8.17-.93z" fill="#4f6a7a"/><path d="M373.6 168.87z" fill="#1a1a1a"/><path d="M390.18 140.7c-2-.74-4.57-.4-7.37 1.2-6.42 3.7-11.63 12.73-11.63 20.14 0 2.95.82 5.2 2.22 6.6l.18.17c2.13 1.95 5.46 2.07 9.2-.1 6.42-3.7 11.63-12.73 11.63-20.14.03-4.15-1.63-6.93-4.23-7.9z" fill="url(#d)"/><path d="M382.8 143.1c-5.86 3.4-10.62 11.62-10.62 18.4s4.75 9.52 10.62 6.13 10.62-11.62 10.62-18.4-4.75-9.52-10.62-6.13z" class="CI"/><path d="M382.8 143.93c-5.46 3.15-9.9 10.82-9.9 17.12s4.43 8.86 9.9 5.7 9.9-10.82 9.9-17.12-4.43-8.86-9.9-5.7z" class="CS"/><path d="M627.98 183.3v-11.5l-57 31.45-57-31.45v11.5l57 32.9 57-32.9z" fill="url(#e)"/><path d="M571 204.72l-57-32.9 57-32.9 57 32.9-57 32.9z" fill="url(#f)"/><path d="M571 203.77l-56.17-32.43-.82.47 57 32.9 57-32.9-.83-.47L571 203.77z" class="CD CL"/><path d="M520.04 172.2v1.06l17.62 10.18v-2.98l-1.66.96-15.96-9.22z" fill="#3e333b"/><path d="M537.66 180.45v2.98l36.28-20.95v-2.97l-36.28 20.94z" class="CY"/><path d="M575.6 158.55L536 181.4v-16.67c0-5.45 3.83-12.1 8.55-14.8l22.5-13c2.36-1.36 4.5-1.5 6-.6s2.5 2.8 2.5 5.54z" class="CI"/><path d="M544.55 149.92l22.5-13c2.36-1.36 4.5-1.5 6-.6-.07 0-16.06-9.25-17.58-10.15s-3.7-.8-6.1.58l-22.5 13c-4.72 2.73-8.55 9.36-8.55 14.8v16.67L536 181.4v-16.67c0-5.46 3.83-12.1 8.55-14.82z" fill="url(#g)"/><use xlink:href="#AD" class="CY"/><use xlink:href="#AE" fill="#4d4d4d"/><g class="CY"><use xlink:href="#AD" x="7.02" y="4.06"/><use xlink:href="#AE" x="7.02" y="4.05"/></g><path d="M525.7 158.32V167l3 1.73v-8.7a16.91 16.91 0 0 1 2-7.46.57.57 0 0 0-.22-.75l-2.06-1.2a.51.51 0 0 0-.71.21 16.91 16.91 0 0 0-2.01 7.49z" fill="url(#h)"/><path d="M529.56 152.63l-1.3-.75a16.58 16.58 0 0 0-1.72 6.93v7.07l1.3.75v-7.07a16.58 16.58 0 0 1 1.72-6.93z"/><path d="M529.1 154.06a23.59 23.59 0 0 0-2.26.8 2.2 2.2 0 0 0-1 2.1c0 .57.12.93.34 1.06s.4.06.68-.13 1.7-1.34 2.26-1.8a.92.92 0 0 0 .32-.63v-1.14a.27.27 0 0 0-.11-.24.25.25 0 0 0-.23-.01z" fill="#292929"/><path d="M525.83 157a2.2 2.2 0 0 1 1-2.1 23.59 23.59 0 0 1 2.26-.8.26.26 0 0 1 .2 0l-2.4-1.4a.25.25 0 0 0-.21 0 23.58 23.58 0 0 0-2.26.8 2.2 2.2 0 0 0-1 2.1c0 .58.12.94.34 1.06l2.4 1.4c-.22-.16-.33-.52-.33-1.06z" class="CY"/><path d="M524 169a6.36 6.36 0 0 0 3 5.37c1.75 1 3.27.25 3.4-1.7a6.36 6.36 0 0 0-3-5.37c-1.8-1.04-3.3-.3-3.4 1.7z" fill="url(#i)"/><ellipse cx="525.43" cy="171.83" rx="2.16" ry="3.73" transform="matrix(.866025 -.5 .5 .866025 -15.52 285.74)" fill="#f6fcff"/><path d="M527.3 170.75c-1-1.73-2.6-2.7-3.64-2.2l1.65-1c1-.6 2.7.37 3.73 2.16s1 3.72 0 4.3l-1.74 1c1.03-.55 1.03-2.48 0-4.27z" fill="#dde2e6"/><ellipse cx="525.31" cy="171.9" rx="1.97" ry="3.41" transform="matrix(.866025 -.5 .5 .866025 -15.57 285.69)" fill="#ccd1d4"/><path d="M523.6 168.95a1.16 1.16 0 0 0-.19.14l1.06 1.84a.24.24 0 0 0 .41-.24l-1.06-1.84z" fill="#ff5102"/><path d="M528.4 168.82a6.28 6.28 0 0 1 .65.93 6.36 6.36 0 0 1 .41.85l-1.76 1a6.39 6.39 0 0 0-.39-.8 6.29 6.29 0 0 0-.65-.93z" opacity=".4" class="CD"/><path d="M554 123a1.53 1.53 0 0 0-.67-.92c-1.32-.76-3.87.92-5 2.27-1.44-.35-2.52-.07-4.45 1a12.43 12.43 0 0 0-4.45 4.09c-1.35-.1-4.88 1.83-5.64 5.17-.65 2.84.28 3 .4 9.45l19.42-11.2c.12-6.6 1.05-7.8.4-9.85z" class="CX"/><g class="CZ"><path d="M530.57 132.77c-.65 2.84.28 3 .4 9.45v2.4l.44.25a1.59 1.59 0 0 0 1.44 0l1.36-.78c-.1-6.5-1-6.6-.4-9.45.77-3.33 4.3-5.26 5.64-5.17l-3.23-1.86c-1.36-.1-4.88 1.82-5.65 5.16z"/><use xlink:href="#AF"/><path d="M553.32 122.05l-3.23-1.86c-1.32-.76-3.87.9-5 2.27l3.23 1.86c1.14-1.32 3.68-3.03 5-2.27z"/></g><path d="M561 127a1.53 1.53 0 0 0-.67-.92c-1.32-.76-3.87.92-5 2.27-1.44-.35-2.52-.07-4.45 1a12.43 12.43 0 0 0-4.45 4.09c-1.35-.1-4.88 1.83-5.64 5.17-.65 2.84.28 3 .4 9.45l19.42-11.2c.14-6.54 1.07-7.74.4-9.85z" class="CX"/><g class="CZ"><path d="M543.24 131.65c-1.35-.1-4.88 1.83-5.64 5.17-.65 2.84.28 3 .4 9.45v2.4l.44.25a1.59 1.59 0 0 0 1.44 0l1.36-.78c-.1-6.5-1-6.6-.4-9.45.77-3.33 4.3-5.26 5.64-5.17l-3.23-1.86zm13.88-7.4c-1.32-.76-3.87.9-5 2.27l3.23 1.86c1.1-1.35 3.65-3 5-2.27z"/><use xlink:href="#AF" x="7.03" y="4.06"/></g><path d="M605.1 148.6l-26-15.1.1 34.76 26 15.1-.1-34.76z" class="CO"/><path d="M605.03 127.6l-26-15.1.06 21 26 15.1-.06-21z" fill="#f8f8f8"/><path d="M583.86 139.82l-26-15.1.06 21 26 15.1-.06-21z" fill="#252525"/><path d="M579.03 112.5l18-10.4 26 15.1-39.16 22.6-26-15.1 21.17-12.22z" class="CO"/><path d="M605.03 127.6l18-10.4.16 55.76-18 10.38-.1-34.76-21.17 12.22-.06-21 21.17-12.22zM563 142.3l14.12 8.15v-10.7L563 131.6v10.7z" fill="#141414"/><path d="M563.5 140.76l13.02 7.52v-8.08l-13.02-7.5v8.07z" fill="#025074"/><path d="M573.1 142.7c0-.9.63-1.25 1.4-.8a3.1 3.1 0 0 1 1.4 2.42c0 .9-.63 1.25-1.4.8a3.1 3.1 0 0 1-1.4-2.42zm.36.2a2.29 2.29 0 0 0 1 1.8c.57.33 1 .06 1-.6a2.29 2.29 0 0 0-1-1.8c-.53-.3-1-.06-1 .6zm.8.94a.52.52 0 0 0 .23.4c.13.07.23 0 .23-.13v-.93a.52.52 0 0 0-.23-.4c-.13-.07-.23 0-.23.13zm-10.44-6.64l.34.38a1.93 1.93 0 0 0 .05.37l-.27.16v.07l.18.42s0 .06.06.06l.36.06a2.7 2.7 0 0 0 .25.34v.44a.1.1 0 0 0 0 .08l.32.26h.06l.16-.3a1.15 1.15 0 0 0 .3.11l.27.46a.07.07 0 0 0 .06 0h.27v-.06l-.13-.5a.59.59 0 0 0 .17-.19l.38.22h.05l.07-.33a.1.1 0 0 0 0-.08l-.34-.38a1.91 1.91 0 0 0-.05-.37l.27-.16v-.07l-.18-.42s0-.06-.06-.06l-.36-.06a2.7 2.7 0 0 0-.25-.34v-.44a.1.1 0 0 0 0-.08l-.32-.26h-.06l-.16.3a1.14 1.14 0 0 0-.3-.11l-.27-.46a.07.07 0 0 0-.06 0h-.27v.06l.13.5a.59.59 0 0 0-.17.19l-.38-.22h-.05l-.07.33a.1.1 0 0 0 0 .08zm.9.5c.07-.33.4-.38.72-.12a1.27 1.27 0 0 1 .46 1.09c-.07.33-.4.38-.72.12a1.27 1.27 0 0 1-.46-1.09zm7.77 5.1l-.8.46a.24.24 0 0 1-.25 0 .64.64 0 0 1-.25-.25l-.8-1.4c-.13-.22-.13-.46 0-.53s.33 0 .46.26l.2.35v-1.2c0-.25.17-.35.4-.22a.85.85 0 0 1 .39.67v1.2l.16-.14c.13-.07.33 0 .46.26s.16.46.03.53zm-5.13-3.8l.77-.44a.23.23 0 0 1 .24 0 .62.62 0 0 1 .24.24l.77 1.33c.12.2.12.44 0 .5s-.32 0-.44-.25l-.2-.34v1.15c0 .24-.17.33-.37.2a.82.82 0 0 1-.37-.64v-1.15l-.2.1c-.12.07-.32 0-.44-.25s-.12-.48 0-.48z" class="CD"/><g fill="#141414"><path d="M605.25,179.94v3.38a21.14,21.14,0,0,1-4.39,1.87v-3.38a21.14,21.14,0,0,0,4.39-1.87Z"/><path d="M600.86 181.8v3.38a29.4 29.4 0 0 1-8.07 1.21V183a29.39 29.39 0 0 0 8.07-1.21z"/><path d="M592.8 183v3.38a26.77 26.77 0 0 1-13.44-3.11c-3.62-2.1-5.43-4.83-5.42-7.57v-3.38c0 2.74 1.8 5.48 5.42 7.57a26.77 26.77 0 0 0 13.44 3.11z"/></g><path d="M579.2 164.9l26 15c-7.15 4.12-18.73 4.1-25.9 0s-7.18-10.84-.1-15z" fill="#252525"/><g fill="#0c93bd"><path d="M580.84 177l.67-.4-.36-.7-.44-.94-.67.4.44.94z"/><path d="M577.25 168.38l-.67.4c-.12.1-.16.6.07 1.62a7.16 7.16 0 0 0 3.33 5h.08l.67-.4h-.08a7.16 7.16 0 0 1-3.33-5c-.23-1-.2-1.5-.07-1.62zm-.75-1.3l-.67.4c.42-.24 1.08 0 1.7.35l.67-.4c-.6-.35-1.27-.6-1.7-.35z"/></g><path d="M578.26 169.55l.67-.4-.18-1.38-.67.4.18 1.38z" fill="#0fb4e7"/><path d="M578.08 168.17l.67-.4-.56-.36-.67.4a6 6 0 0 1 .56.36z" fill="#0c93bd"/><path d="M577.52 167.8c-1.24-.7-2.68-1-1.9 2.35a9.46 9.46 0 0 0 4.35 6.42 7.27 7.27 0 0 0 .88.43l-.36-.7-.44-.94h-.08a7.16 7.16 0 0 1-3.33-5c-.23-1-.2-1.5-.07-1.62s.47 0 1 .26a6.25 6.25 0 0 1 .75.51l-.18-1.38c-.22-.1-.4-.23-.6-.34z" fill="#0fb4e7"/><path d="M583.86,178.06a1.68,1.68,0,0,0,1,1.39,5.16,5.16,0,0,0,4.69,0,1.62,1.62,0,0,0,.92-1.32v.7a1.62,1.62,0,0,1-.92,1.32,5.16,5.16,0,0,1-4.69,0,1.68,1.68,0,0,1-1-1.39Z" fill="#0ea4d4"/><path d="M580.78 172.77a14.44 14.44 0 0 0 13.1-.13c1.7-1 2.56-2.34 2.58-3.66a13.6 13.6 0 0 1-.43 3.2 12.29 12.29 0 0 1-.48 1.47 11.47 11.47 0 0 1-.65 1.39 11.28 11.28 0 0 1-1.45 2.06 10.21 10.21 0 0 1-.85.85l-.43.36a17.92 17.92 0 0 1-.89.61 8.31 8.31 0 0 1-1.89.84 7.6 7.6 0 0 1-2.12.32 7.74 7.74 0 0 1-3.06-.61 9.57 9.57 0 0 1-.85-.42 9.21 9.21 0 0 1-2.1-1.62 9.91 9.91 0 0 1-1-1.13 11 11 0 0 1-.8-1.25 11.55 11.55 0 0 1-.64-1.35 12.33 12.33 0 0 1-.48-1.45 13.18 13.18 0 0 1-.31-1.52c0-.32-.1-.76-.1-1.08s0-.5 0-.74c.03 1.4.98 2.8 2.86 3.86z" fill="#11c4fe"/><path d="M593.9 172.64c3.54-2.13 3.42-5.53-.27-7.6a14.44 14.44 0 0 0-13.1.13c-3.54 2.13-3.42 5.53.27 7.6a14.44 14.44 0 0 0 13.1-.13z" fill="#70ddfe"/><path d="M587.23 173.48a12.49 12.49 0 0 0 6.25-1.53c1.43-.86 2.2-2 2.2-3.07s-.9-2.28-2.44-3.15a12.66 12.66 0 0 0-6.06-1.41 12.49 12.49 0 0 0-6.25 1.53c-1.43.86-2.2 2-2.2 3.07s.9 2.28 2.44 3.15a12.67 12.67 0 0 0 6.05 1.41z" fill="#0ea4d4"/><g clip-path="url(#j)" class="CK"><use xlink:href="#AG"/><path d="M577.1 152.22l.6-.35a.73.73 0 0 0-.19.08l-.6.35a.74.74 0 0 1 .19-.08z"/></g><g clip-path="url(#k)" class="CK"><use xlink:href="#AH"/><use xlink:href="#AI"/></g><path d="M578,152.4c-.82-.48-1.5-.1-1.5.86a3.29,3.29,0,0,0,1.49,2.58c.83.48,1.5.1,1.5-.85A3.28,3.28,0,0,0,578,152.4Z" class="CO"/><g clip-path="url(#l)" class="CK"><use xlink:href="#AG" x="-5.3" y="-2.95"/><use xlink:href="#AJ"/></g><g clip-path="url(#m)" class="CK"><use xlink:href="#AH" x="-5.24" y="-2.94"/><use xlink:href="#AI" x="-5.27" y="-2.94"/></g><use xlink:href="#AK" class="CO"/><g clip-path="url(#n)" class="CK"><use xlink:href="#AG" x="-10.86" y="-6.17"/><use xlink:href="#AJ" x="-5.57" y="-3.22"/></g><g clip-path="url(#o)" class="CK"><use xlink:href="#AH" x="-10.8" y="-6.17"/><use xlink:href="#AI" x="-10.84" y="-6.16"/></g><use xlink:href="#AK" x="-5.56" y="-3.22" class="CO"/><g clip-path="url(#p)" class="CK"><use xlink:href="#AG" x="-16" y="-8.97"/><path d="M561.17 143.25l.6-.35a.72.72 0 0 0-.19.08l-.6.35a.72.72 0 0 1 .19-.08z"/></g><g clip-path="url(#q)" class="CK"><use xlink:href="#AH" x="-15.9" y="-8.94"/><use xlink:href="#AI" x="-15.93" y="-8.96"/></g><use xlink:href="#AK" x="-10.7" y="-6.02" class="CO"/><path d="M425.35 238.3a2.63 2.63 0 0 0 1.42.39h.23a6.61 6.61 0 0 0 3.49-1.51h.06a12.48 12.48 0 0 0 1.57-1.47l.2-.24a17.3 17.3 0 0 0 3.46-6.31l5.46 36.16-12.1 6.95-5.47-36.26a4.35 4.35 0 0 0 1.67 2.29z" fill="#961703"/><path d="M451.2 248.33c5 3 9.24 1.17 10.42-4l5 3-5.46 29.7-.17-.03a45.65 45.65 0 0 0-9.9-8.05 25.83 25.83 0 0 0-9.88-3.67l-5.46-36.16 5 3c1.24 6.43 5.42 13.24 10.45 16.2z" fill="#bfb0a2"/><path d="M436.2 253.9l-3.65-1.4-4.32-26.04 3.65 1.4 4.32 26.03z" class="CE"/><path d="M437.97 252.4l-1.76 1.48-4.32-26.03 1.76-1.48 4.32 26.03z" class="CG"/><path d="M433.64 226.36l-1.75 1.48-3.65-1.4 1.76-1.48 3.64 1.4z" class="CJ"/><path d="M440.26 252.3l-3.54-1.64-2.6-26.26 3.54 1.64 2.6 26.26z" class="CE"/><path d="M442.12 250.94l-1.86 1.36-2.6-26.26 1.85-1.36 2.6 26.26z" class="CG"/><path d="M439.52 224.66l-1.85 1.36-3.54-1.62 1.85-1.36 3.54 1.62z" class="CJ"/><path d="M436.47 259.1l-3.37-1.98v-26.4l3.37 1.98v26.4z" class="CE"/><path d="M438.45 257.93l-1.98 1.17v-26.4l1.98-1.17v26.4z" class="CG"/><path d="M438.45 231.52l-1.98 1.17-3.37-1.96 1.98-1.18 3.37 1.97z" class="CJ"/><path d="M446.17 228.4l-3.56 26.15-3.07-2.42 3.56-26.15 3.07 2.42z" class="CE"/><path d="M448.28 227.5l-3.56 26.15-2.1.9 3.56-26.15 2.1-.9z" class="CG"/><path d="M448.3 227.5l-2.12.9-3.07-2.4 2.1-.9 3.08 2.4z" class="CJ"/><path d="M446.42 259l-3.7-1.22-5.6-25.8 3.7 1.23 5.6 25.78z" class="CE"/><path d="M448.1 257.43l-1.7 1.56-5.6-25.78 1.68-1.57 5.6 25.8z" class="CG"/><path d="M442.5 231.62l-1.7 1.57-3.7-1.2 1.68-1.57 3.7 1.2z" class="CJ"/><path d="M432.03 258.02l-3.5-1.74-1.9-26.32 3.5 1.74 1.9 26.32z" class="CE"/><path d="M433.92 256.7l-1.9 1.3-1.9-26.32 1.88-1.3 1.9 26.32z" class="CG"/><path d="M432.02 230.37l-1.9 1.3-3.5-1.72 1.9-1.3 3.5 1.72z" class="CJ"/><path d="M436.9 266.07l-3.56-1.62-2.8-26.24 3.56 1.62 2.8 26.24z" class="CE"/><path d="M438.73 264.7l-1.84 1.38-2.8-26.24 1.84-1.38 2.8 26.24z" class="CG"/><path d="M435.93 238.43l-1.84 1.38-3.55-1.6 1.84-1.37 3.55 1.6z" class="CJ"/><path d="M440.84 266.8l-3.37-1.98v-26.4l3.37 1.98v26.4z" class="CE"/><path d="M442.8 265.64l-1.97 1.17v-26.4l1.97-1.17v26.4z" class="CG"/><path d="M442.8 239.23l-1.97 1.17-3.37-1.96 1.97-1.18 3.37 1.97z" class="CJ"/><path d="M455.4 232.05l-10 24.42-2.37-3.1 10-24.42 2.36 3.1z" class="CE"/><path d="M457.67 231.72l-10 24.4-2.27.34 10-24.42 2.28-.33z" class="CG"/><path d="M457.67 231.7l-2.27.33-2.37-3.1 2.27-.34 2.37 3.1z" class="CJ"/><path d="M450.88 237.2l-2.64 26.25-3.15-2.3 2.64-26.26 3.15 2.32z" class="CE"/><path d="M452.96 236.24l-2.64 26.25-2.08.97 2.64-26.25 2.08-.97z" class="CG"/><path d="M452.97 236.22l-2.1.97-3.15-2.3 2.08-.96 3.16 2.3z" class="CJ"/><path d="M446.86 239.88l-5.15 25.88-2.9-2.6 5.14-25.88 2.92 2.6z" class="CE"/><path d="M449.02 239.12L443.88 265l-2.17.76 5.15-25.88 2.16-.76z" class="CG"/><path d="M449.03 239.1l-2.17.76-2.92-2.58 2.17-.77 2.92 2.6z" class="CJ"/><path d="M459.52 237.8l-2.32 26.28-3.18-2.27 2.3-26.3 3.2 2.28z" class="CE"/><path d="M461.6 236.8l-2.32 26.3-2.07 1 2.32-26.28 2.07-1z" class="CG"/><path d="M461.6 236.8l-2.07 1-3.2-2.26 2.08-1 3.18 2.25z" class="CJ"/><path d="M455.04 242.87l-4.73 25.96-2.95-2.56 4.72-25.96 2.96 2.56z" class="CE"/><path d="M457.2 242.07l-4.73 25.96-2.16.8 4.73-25.96 2.16-.8z" class="CG"/><path d="M457.2 242.05l-2.15.8-2.97-2.54 2.16-.8 2.96 2.54z" class="CJ"/><path d="M463.93 242.56l-5.3 25.85-2.9-2.62 5.28-25.85 2.9 2.62z" class="CE"/><path d="M466.1 241.8l-5.3 25.86-2.17.75 5.3-25.85 2.17-.76z" class="CG"/><path d="M466.1 241.78l-2.17.76-2.9-2.6 2.17-.76 2.9 2.6z" class="CJ"/><g class="CF"><path d="M439.1 255.28c5 3 9.24 1.17 10.42-4l5 3-5.45 29.72-.16-.1a45.49 45.49 0 0 0-9.9-8 25.81 25.81 0 0 0-9.88-3.68l-.13-.84-5.33-35.4 5 3c1.2 6.5 5.4 13.3 10.43 16.28z"/><path d="M454.56 254.43a5.31 5.31 0 0 0 1.91 3.51 2.39 2.39 0 0 0 1.34.38h.2a6.07 6.07 0 0 0 3.3-1.51h.06a12.41 12.41 0 0 0 1.49-1.47l.2-.25a17.73 17.73 0 0 0 3.47-7.12l-5.35 29.14-12.26 6.86 5.62-29.6z"/></g><path class="Ak" d="M430 265a6.66 6.66 0 0 1 2.2-3.08l.67-.38a3.8 3.8 0 0 1 1.59-.32h.5a7.44 7.44 0 0 1 2.79.88 18 18 0 0 1 6.21 5.86 27.44 27.44 0 0 1 1.92 3.23l.07.15a28.78 28.78 0 0 1 2.54 7.44 24.1 24.1 0 0 1 .45 5.13 45.49 45.49 0 0 0-9.9-8 25.81 25.81 0 0 0-9.88-3.68l-.13-.84v-.7a18.9 18.9 0 0 1 .2-2.76A13.51 13.51 0 0 1 430 265z" fill="#dedede"/><path d="M422.3 255.3c-9-5.2-23.53-5.2-32.47 0a14.32 14.32 0 0 0-5.65 5.45c-3.2 6.12.46 12.75 5.75 16 9 5.6 23.54 5.6 32.47 0a13.32 13.32 0 0 0 6.59-10.38c.37-5-2.46-8.63-6.7-11.07z" class="CZ"/><path d="M422.3 255.3c9 5.2 9 13.6.1 18.8s-23.48 5.2-32.47 0-9-13.62-.1-18.8 23.47-5.2 32.47 0z" fill="#f09d27"/><path d="M424.15 251.1c10 5.78 10.08 15.17.12 21s-26.16 5.78-36.18 0-10.07-15.17-.12-21 26.16-5.8 36.18 0z" class="CT"/><path d="M422.7 250.76c9.22 5.32 9.27 14 .1 19.28s-24.07 5.32-33.28 0-9.26-14-.1-19.28 24.05-5.32 33.28 0z" fill="#9b320b"/><path d="M435.27 258.18l-29.06 16.88-29.23-16.87 29.06-16.9 29.23 16.88z" class="CN"/><path d="M435.27 258.18v1.6l-29.06 16.9v-1.6l29.06-16.88z" fill="#dbb12a"/><path d="M406.2 275.06v1.6l-29.23-16.88v-1.6l29.23 16.87z" fill="#bc911b"/><use xlink:href="#AL" fill="#d3cfba"/><use xlink:href="#AL" y="-0.7" fill="#f0efe9"/><use xlink:href="#AL" x="33.16" y="-0.35" fill="#d3cfba"/><use xlink:href="#AM" class="Ca"/><use xlink:href="#AN" fill="#6d7b18"/><use xlink:href="#AO" class="Ca"/><use xlink:href="#AO" y="-1.33" fill="#6d7b18"/><use xlink:href="#AP" class="CF"/><use xlink:href="#AP" y="-1.31" class="CP"/><use xlink:href="#AM" x="11.54" class="CF"/><use xlink:href="#AN" x="11.54" class="CP"/><use xlink:href="#AO" x="1.76" y="-5.13" class="CF"/><use xlink:href="#AO" x="1.76" y="-6.44" class="CP"/><path d="M429.84 248a3.14 3.14 0 0 0-2.13-1.71 9.3 9.3 0 0 0-2.81-.19l-17.5.6-.27.75-23.13-1.82c-.47-.63-1.55-.13-1.85.6s-.2 1.57-.47 2.3a6 6 0 0 0-.63 1.55c-.07 1 .9 1.7 1.17 2.65.32 1.2-.5 2.6.2 3.6a2.51 2.51 0 0 0 2.35.72 1.4 1.4 0 0 1 .89.1 1.62 1.62 0 0 1 .48.68 3.42 3.42 0 0 0 2.51 1.77c.9.13 1.83-.1 2.72.05 1.35.25 2.48 1.38 3.85 1.32.57 0 1.12-.26 1.7-.27a5.54 5.54 0 0 1 2.93 1.3c1.54 1 3.55 1.6 5.2.82a7.61 7.61 0 0 1 1.65-.81c1.67-.35 3.07 1.64 4.77 1.5s2.46-2 4-2.48a2.76 2.76 0 0 0 3.43.75 4.69 4.69 0 0 0 2.27-3c1.37-.08 3-.38 3.46-1.68s2.78-.56 3.6-1.54a3.65 3.65 0 0 0 .45-2c.22-1.92 1.9-3.8 1.17-5.57z" class="CQ"/><path d="M429.08 244.43c-.43-4.68-3.55-9.45-6.77-12.35a24.74 24.74 0 0 0-32.47 0 20.37 20.37 0 0 0-6.54 12.63c-.57 4.8 2.7 8.46 6.65 10.74 9 5.2 23.54 5.2 32.47 0 2.8-1.63 5.5-4 6.38-7.3a10.61 10.61 0 0 0 .28-3.73z" class="CX"/><path d="M410.4 227c2.38 1.37 2.4 3.6 0 5a9.47 9.47 0 0 1-8.59 0c-2.38-1.37-2.4-3.6 0-5a9.46 9.46 0 0 1 8.59 0z" fill="#ffb564"/><g class="Aw" fill="#cfd1d2"><ellipse cx="395.69" cy="231.55" rx="1.12" ry=".5" transform="matrix(.917199 -.398429 .398429 .917199 -59.5 176.85)"/><ellipse cx="416.26" cy="242.88" rx=".5" ry="1.12" transform="matrix(.244969 -.969531 .969531 .244969 78.8 586.95)"/><ellipse cx="409.39" cy="228.35" rx="1.12" ry=".5" transform="matrix(.771291 -.636482 .636482 .771291 -51.72 312.76)"/><ellipse cx="399.41" cy="234.81" rx="1.12" ry=".5" transform="matrix(.985259 -.171069 .171069 .985259 -34.27 71.76)"/><ellipse cx="394.34" cy="240.77" rx="1.12" ry=".5" transform="matrix(.985259 -.171069 .171069 .985259 -35.37 70.99)"/><ellipse cx="404.38" cy="239.27" rx="1.12" ry=".5" transform="matrix(.771403 -.636348 .636348 .771403 -59.81 312.05)"/><ellipse cx="399.78" cy="244.99" rx=".5" ry="1.12" transform="matrix(.244969 -.969531 .969531 .244969 64.32 572.57)"/><ellipse cx="407.24" cy="232.56" rx="1.12" ry=".5" transform="matrix(.87 -.5 .5 .87 -61.72 234.78)"/><ellipse cx="422.82" cy="239.5" rx="1.12" ry=".5" transform="matrix(.866025 -.5 .5 .866025 -63.1 243.5)"/><ellipse cx="422.11" cy="234.81" rx=".5" ry="1.12" transform="matrix(.5 -.866025 .866025 .5 7.71 482.96)"/><ellipse cx="415.21" cy="232.06" rx=".5" ry="1.12" transform="matrix(.974252 -.225461 .225461 .974252 -41.62 99.55)"/><ellipse cx="390.02" cy="236.37" rx=".5" ry="1.12" transform="matrix(.974291 -.225291 .225291 .974291 -43.24 93.98)"/><ellipse cx="401.16" cy="228.59" rx=".5" ry="1.12" transform="matrix(.567413 -.823434 .823434 .567413 -14.71 429.19)"/><ellipse cx="406.68" cy="244.77" rx=".5" ry="1.12" transform="matrix(.567556 -.823335 .823335 .567556 -25.65 440.72)"/><ellipse cx="412.98" cy="236.37" rx=".5" ry="1.12" transform="matrix(.567556 -.823335 .823335 .567556 -16.01 442.27)"/></g><g class="CD"><ellipse cx="395.69" cy="231.34" rx="1.12" ry=".5" transform="matrix(.917199 -.398429 .398429 .917199 -59.41 176.83)"/><ellipse cx="416.26" cy="242.67" rx=".5" ry="1.12" transform="matrix(.244969 -.969531 .969531 .244969 79.01 586.79)"/><ellipse cx="409.39" cy="228.14" rx="1.12" ry=".5" transform="matrix(.771291 -.636482 .636482 .771291 -51.58 312.71)"/><ellipse cx="399.41" cy="234.59" rx="1.12" ry=".5" transform="matrix(.985259 -.171069 .171069 .985259 -34.23 71.76)"/><ellipse cx="394.34" cy="240.55" rx="1.12" ry=".5" transform="matrix(.985259 -.171069 .171069 .985259 -35.33 70.98)"/><ellipse cx="404.38" cy="239.06" rx="1.12" ry=".5" transform="matrix(.771403 -.636348 .636348 .771403 -59.68 312)"/><ellipse cx="399.78" cy="244.78" rx=".5" ry="1.12" transform="matrix(.244969 -.969531 .969531 .244969 64.52 572.41)"/><ellipse cx="407.24" cy="232.34" rx="1.12" ry=".5" transform="matrix(.866025 -.5 .5 .866025 -61.61 234.75)"/><ellipse cx="422.82" cy="239.29" rx="1.12" ry=".5" transform="matrix(.87 -.5 .5 .87 -63 243.47)"/><ellipse cx="422.11" cy="234.59" rx=".5" ry="1.12" transform="matrix(.5 -.866025 .866025 .5 7.89 482.85)"/><ellipse cx="415.21" cy="231.84" rx=".5" ry="1.12" transform="matrix(.974252 -.225461 .225461 .974252 -41.57 99.55)"/><ellipse cx="390.02" cy="236.16" rx=".5" ry="1.12" transform="matrix(.974291 -.225291 .225291 .974291 -43.19 93.98)"/><ellipse cx="401.16" cy="228.38" rx=".5" ry="1.12" transform="matrix(.57 -.82 .82 .57 -14.53 429.1)"/><ellipse cx="406.68" cy="244.56" rx=".5" ry="1.12" transform="matrix(.567556 -.823335 .823335 .567556 -25.47 440.63)"/><ellipse cx="412.98" cy="236.16" rx=".5" ry="1.12" transform="matrix(.567556 -.823335 .823335 .567556 -15.83 442.18)"/></g><path d="M381.55 243.76h-4.6l-8 .06h-4.57l-7.17.06.56 4.63.28 2.4 3.4 28.27a6.09 6.09 0 0 0 3 4.89 12.06 12.06 0 0 0 3.59 1.67 17 17 0 0 0 9.51.06.54.54 0 0 0 .17 0h.06a12.93 12.93 0 0 0 3.57-1.67 6.12 6.12 0 0 0 3-4.89l4.28-35.5h-.07z" class="CF"/><path d="M374.38 247.3l-13 .07v.15l.35 4.3.2 2.14 2.55 30.12a12.06 12.06 0 0 0 3.59 1.67 17 17 0 0 0 9.51.06.54.54 0 0 0 .17 0h.06a12.93 12.93 0 0 0 3.57-1.67l3.15-36.6v-.28h-5z" class="CP"/><path d="M358.07 251c2.82 3.36 8.4 5.65 14.82 5.65s12-2.3 14.85-5.68l.87-7.2-31.38.2z" fill="#ba2e25"/><path d="M372.9 233.3c-7 0-13 2.7-15.5 6.55h-1.3v4.1c0 5.87 7.5 10.64 16.78 10.64s16.78-4.76 16.78-10.64v-4.1h-1.3c-2.5-3.84-8.5-6.55-15.48-6.55z" fill="#dfddce"/><ellipse cx="372.89" cy="239.84" rx="16.78" ry="10.64" fill="#fffef3"/><ellipse cx="372.89" cy="239.84" rx="10.67" ry="6.76" fill="#f6f5e8"/><g fill="#eeecdf"><ellipse cx="372.89" cy="240.53" rx="6.57" ry="4.17"/><path d="M372.9 233.07c-5.9 0-10.67 3-10.67 6.76a4.35 4.35 0 0 0 .09.82c.64-3.35 5.13-5.94 10.6-5.94s9.94 2.6 10.6 5.94a4.35 4.35 0 0 0 .09-.82c-.02-3.73-4.8-6.76-10.7-6.76z"/></g><ellipse cx="372.89" cy="238.88" rx="6.57" ry="4.17" fill="#fffef3"/><path d="M374.3 237.43a4 4 0 0 0-1.43-.26 3.36 3.36 0 0 0-2.2.71 1.33 1.33 0 0 0-.51 1c0 .67.6 1.25 1.5 1.53a4.08 4.08 0 0 0 1.22.19 3.25 3.25 0 0 0 2.33-.84 1.29 1.29 0 0 0 .38-.88c.01-.62-.5-1.15-1.28-1.45z" fill="#eeecdf"/><path d="M368.9 221.64a3.15 3.15 0 0 0-2.6.66l-15.86 9.18 1.55 3.2 16.14-9.32 3.52 15.06a4.08 4.08 0 0 0 1.22.19 3.25 3.25 0 0 0 2.33-.84l-4-16.2a3.15 3.15 0 0 0-2.3-1.91z" class="CF"/><path d="M352.23 232.6a2.14 2.14 0 0 0-1.15-1.13.83.83 0 0 0-.62 0 1.12 1.12 0 0 0-.48 1.16 2.6 2.6 0 0 0 .26.91 2.21 2.21 0 0 0 1 1.09.86.86 0 0 0 .73 0 1.19 1.19 0 0 0 .47-1.31 2.69 2.69 0 0 0-.21-.72z" fill="#c95f55"/><path d="M351.13 231.95a.58.58 0 0 0-.43 0 .78.78 0 0 0-.33.81 1.83 1.83 0 0 0 .18.63 1.54 1.54 0 0 0 .72.76.6.6 0 0 0 .51 0 .83.83 0 0 0 .33-.91 1.87 1.87 0 0 0-.17-.54 1.49 1.49 0 0 0-.81-.75z" fill="#822a2a"/><path d="M306.2 4.32c.8-.45 1.43-.08 1.44.82l.08 29.44a3.16 3.16 0 0 1-1.43 2.42l-46.4 26.8c-.8.45-1.44.1-1.44-.8l-.08-29.44a3.16 3.16 0 0 1 1.43-2.48z" class="CI"/><path d="M340.75 56.33a.59.59 0 0 1 0 .1v.55l-.07.12-.06.07-.13.14-.07.07-.1.08-.1.08-.1.07-.17.1-18.42 10.52v-1.1l-4-2.34 5.8-3.37V61l.38.22 7.9-4.6v-2.76l-3.7-2.14-.85.5v-1l-1.24-.72-2.46-1.42-4.28-2.48-1.07.62V46l-3.7-2.14-.83.48v-1l-3.7-2.13-3.83 2.22v.85l-.73-.42-3.83 2.22V47l-.73-.42-3.83 2.22v.85l-.73-.42-3.82 2.22v.85l-.74-.42-3.83 2.22v.85l-.73-.42-3.83 2.22v.85l-.73-.42-3.83 2.22v.85l-.73-.42L274 62v.85l-.73-.42-3.83 2.22v2.76l2.14 1.24-.9.53v-1l-3.67-2.1-3.83 2.22v2.76l3.7 2.14.83-.48v1l3.7 2.14.83-.48v1l3.7 2.14.82-.48v1l3.7 2.14.85-.5v1l3.7 2.14 8.14-4.83v-.55l.48.28 6-3.47v-.63l.54.3 2.2-1.27v1.06l4 2.34-14.9 8.6a3.52 3.52 0 0 1-.47.22l-.14.05-.33.1-.3.07-.43.07h-1.4l-.53-.1h-.1a4.59 4.59 0 0 1-.49-.15h-.05a3.43 3.43 0 0 1-.52-.24l-27.8-16.23a1.67 1.67 0 0 1-1-1.37q0 1.38 0 2.76a1.67 1.67 0 0 0 1 1.37l27.8 16.15a3.45 3.45 0 0 0 .5.24h.06l.34.1h.35l.33.05h1.9l.3-.07h.18l.16-.06h.14a3.4 3.4 0 0 0 .47-.22l48.43-27.97h.06l.1-.07.1-.08.1-.07.13-.14.08-.12v-.4a.63.63 0 0 0 0-.1v-.07q.33-1.7.33-3.07z" fill="url(#r)"/><path d="M339.78 55L312 38.8a5.27 5.27 0 0 0-4.76 0L258.9 66.7c-1.32.76-1.32 2 0 2.76l27.8 16.15a5.26 5.26 0 0 0 4.76 0l48.32-27.9c1.3-.72 1.3-2 .01-2.72z" class="CS"/><g class="CI"><path d="M307.83 47.63l3.7 2.13L307.7 52l-3.7-2.14 3.83-2.22zm5.9 1.82l3.7 2.13-3.83 2.22-3.7-2.13 3.83-2.22zm5.33-2.82l4.3 2.48 2.45 1.42 1.24.7L320.6 55l-3.7-2.14 2-1.16-4.3-2.47 4.48-2.6z"/><use xlink:href="#AQ"/><path d="M327.9 51.73l3.7 2.14-7.9 4.6-3.7-2.14 7.9-4.6zm-8.28 4.8l3.7 2.14-5.98 3.47-3.7-2.14 6-3.47zm-11.8 1.58l3.7 2.14-3.82 2.22-3.7-2.14 3.83-2.22zm1.95-16.86l3.7 2.14-3.82 2.22-3.7-2.14 3.83-2.22z"/><use xlink:href="#AR"/><path d="M314.3 43.88L318 46l-5.93 3.44-3.7-2.13 5.93-3.44z"/><use xlink:href="#AQ" x="-8.77" y="-5.4"/><path d="M296.1 49.2l3.7 2.14-3.83 2.2-3.7-2.13 3.83-2.22z"/><use xlink:href="#AS"/><use xlink:href="#AQ" x="-17.89" y="-0.11"/><path d="M299.1 52.7l3.7 2.13-3.83 2.22-3.7-2.13 3.83-2.22zm17.3.44l3.7 2.14-3.83 2.23-3.7-2.14 3.83-2.23z"/><use xlink:href="#AQ" x="-22.45" y="2.55"/><use xlink:href="#AR" x="-0.1" y="10.55"/><path d="M294.76 55.22l3.7 2.13-3.82 2.22-3.7-2.13 3.83-2.22z"/><use xlink:href="#AR" x="6.88" y="11.75"/><use xlink:href="#AQ" x="-8.62" y="5"/><use xlink:href="#AS" x="-21.07" y="6.98"/><path d="M290.4 57.74l3.7 2.14-3.82 2.22-3.7-2.13 3.83-2.23zm6.1 1.7l3.7 2.14-3.83 2.22-3.7-2.14 3.84-2.22z"/><use xlink:href="#AQ" x="-31.57" y="7.83"/><use xlink:href="#AS" x="-17.43" y="10.12"/><use xlink:href="#AQ" x="-6.05" y="8.75"/><path d="M292.2 61.95l3.7 2.13-3.82 2.23-3.7-2.14 3.83-2.22zm-18.9.48l3.7 2.13-3.84 2.23-3.7-2.14 3.84-2.22z"/><use xlink:href="#AS" x="-21.79" y="12.65"/><use xlink:href="#AS" x="-4.37" y="13.02"/><use xlink:href="#AQ" x="-21.54" y="12.5"/><use xlink:href="#AS" x="-8.67" y="15.52"/><path d="M267 66.08l3.7 2.14-3.83 2.22-3.7-2.14 3.82-2.22z"/><use xlink:href="#AQ" x="-25.85" y="15"/><path d="M313.24 60.24l3.7 2.14-16.82 9.76-3.7-2.14 16.82-9.76zm-22.7 7.9l3.7 2.13-3.82 2.23-3.7-2.14 3.83-2.22zm-13.4-2.7l3.7 2.14-9.43 5.48-3.7-2.14 9.43-5.48zm38.95-1.46l5.46 3.16-13.78 7.96-5.45-3.17 13.77-7.95zm-36.83 5.48l3.7 2.14-7.03 4.07-3.7-2.14 7.02-4.07zm16.63.86l3.7 2.14-5.98 3.47-3.7-2.14 6-3.47zm-9.7.36l3.7 2.13-9.43 5.48-3.7-2.14 9.43-5.47zm3.22 3.4l3.7 2.14-8.1 4.7-3.7-2.14 8.1-4.7z"/></g><path d="M308.6 1h-.1l-1.36-.8a1.69 1.69 0 0 0-1.7.16l-48.32 27.9a5.26 5.26 0 0 0-2.38 4.12l.1 32.15a1.66 1.66 0 0 0 .7 1.53l1.7 1a1.67 1.67 0 0 1-.7-1.53l-.1-32.15a5.26 5.26 0 0 1 2.38-4.12l48.32-27.9a1.68 1.68 0 0 1 1.7-.16z" fill="url(#s)"/><path d="M307.16 1.3c1.3-.76 2.4-.15 2.4 1.36l.1 32.15a5.27 5.27 0 0 1-2.39 4.18l-48.32 27.9c-1.32.76-2.4.14-2.4-1.37l-.1-32.15a5.26 5.26 0 0 1 2.38-4.12zm.57 33.26l-.08-29.44c0-.9-.65-1.27-1.44-.82l-46.4 26.8a3.16 3.16 0 0 0-1.43 2.48l.1 29.4c0 .9.65 1.27 1.44.8L306.3 37a3.16 3.16 0 0 0 1.43-2.47z" class="CS"/><path d="M72.95 219.2h-7.02l.03-4.4h7.02l-.03 4.4z" fill="#081929"/><path d="M72 217.8c1.34.8 1.3 2.1-.1 2.88a5.47 5.47 0 0 1-5-.05c-1.34-.8-1.3-2.1.1-2.88a5.47 5.47 0 0 1 5 .05z" class="Cb"/><path d="M76.38 210.32c3.65 2.2 3.53 5.7-.28 7.82a14.87 14.87 0 0 1-13.5-.14c-3.65-2.2-3.53-5.7.28-7.82a14.87 14.87 0 0 1 13.5.14z" class="CU"/><g fill="#c4c4c4"><path d="M62.4 217.08a7.75 7.75 0 0 1-1.68-1.33 6.23 6.23 0 0 1-.51-.62 5.11 5.11 0 0 1-.5-.87 4.51 4.51 0 0 1-.29-.86 4.24 4.24 0 0 1-.1-.86 4.62 4.62 0 0 1 0-.66 4.35 4.35 0 0 1 .22-.86 5 5 0 0 1 .84-1.47 7 7 0 0 1 1.34-1.26 11.24 11.24 0 0 1 4.29-1.86 16.08 16.08 0 0 1 2.95-.37h1.47c.63 0 .84.06 1.44.14a13.32 13.32 0 0 0 1.39.27 12.78 12.78 0 0 1 1.32.39 11.37 11.37 0 0 1 1.25.52c.24.1.54.3.77.42a.64.64 0 0 0-.2-.08 1.64 1.64 0 0 0-1.07.26 12.56 12.56 0 0 0-11.4-.12c-3.2 1.8-3.32 4.75-.24 6.6a12.56 12.56 0 0 0 11.4.12c3.2-1.8 3.32-4.75.24-6.6a1.64 1.64 0 0 1 1.07-.26.64.64 0 0 1 .2.08l.74.5a7.45 7.45 0 0 1 .81.7 6.38 6.38 0 0 1 .56.64 5.3 5.3 0 0 1 .54.88 4.45 4.45 0 0 1 .43 1.55 4 4 0 0 1 0 .74 4.13 4.13 0 0 1-.17.86 4.76 4.76 0 0 1-.36.86 5.55 5.55 0 0 1-.45.7 6.94 6.94 0 0 1-1.31 1.29 9.74 9.74 0 0 1-2.07 1.19 12.74 12.74 0 0 1-2.31.74 15 15 0 0 1-10.61-1.37z"/><path d="M62.38 214.32A7.75 7.75 0 0 1 60.7 213a6.19 6.19 0 0 1-.52-.62 5.16 5.16 0 0 1-.5-.87 4.52 4.52 0 0 1-.29-.86 4.26 4.26 0 0 1-.1-.86 4.61 4.61 0 0 1 0-.65 4.35 4.35 0 0 1 .22-.86 4.76 4.76 0 0 1 .41-.86 5.48 5.48 0 0 1 .51-.71 7.53 7.53 0 0 1 1.46-1.31 10.44 10.44 0 0 1 1.75-1l.87-.34a12.82 12.82 0 0 1 1.44-.41 16.07 16.07 0 0 1 2.95-.37h1.47c.72 0 .84.06 1.44.14a13.32 13.32 0 0 0 1.39.27 12.78 12.78 0 0 1 1.32.39 11.33 11.33 0 0 1 1.24.52c.24.1.54.3.77.42a.64.64 0 0 0-.2-.08 1.63 1.63 0 0 0-1.07.25 12.56 12.56 0 0 0-11.4-.12c-3.2 1.8-3.32 4.75-.24 6.6a12.56 12.56 0 0 0 11.4.12c3.2-1.8 3.32-4.75.24-6.6a1.63 1.63 0 0 1 1.07-.25.64.64 0 0 1 .2.08l.74.5a7.5 7.5 0 0 1 .82.7 5.47 5.47 0 0 1 1.1 1.51 4.45 4.45 0 0 1 .43 1.55 4 4 0 0 1 0 .74 4.15 4.15 0 0 1-.17.86 4.74 4.74 0 0 1-.37.86 5.57 5.57 0 0 1-.46.7 7 7 0 0 1-1.31 1.29 9.73 9.73 0 0 1-2.04 1.27 12.76 12.76 0 0 1-2.31.75 15 15 0 0 1-10.58-1.43z"/><path d="M62.38 211.58a7.75 7.75 0 0 1-1.68-1.33 6.22 6.22 0 0 1-.52-.62 5.11 5.11 0 0 1-.5-.87 4.51 4.51 0 0 1-.29-.86 4.27 4.27 0 0 1-.1-.86 4.61 4.61 0 0 1 0-.65 4.34 4.34 0 0 1 .22-.86 4.77 4.77 0 0 1 .41-.86 5.49 5.49 0 0 1 .5-.71 7.49 7.49 0 0 1 1.45-1.31 10.34 10.34 0 0 1 1.76-1 13 13 0 0 1 2.31-.75 16.08 16.08 0 0 1 2.95-.37h1.47c.63 0 .84.06 1.44.14a13.32 13.32 0 0 0 1.39.27 12.76 12.76 0 0 1 1.32.39 11.36 11.36 0 0 1 1.24.52c.24.1.54.3.77.42a.64.64 0 0 0-.2-.08 1.63 1.63 0 0 0-1.07.25 12.56 12.56 0 0 0-11.4-.12c-3.2 1.8-3.32 4.75-.24 6.6a12.56 12.56 0 0 0 11.4.12c3.2-1.8 3.32-4.75.24-6.6a1.63 1.63 0 0 1 1.07-.25.64.64 0 0 1 .2.08l.74.5a7.47 7.47 0 0 1 .82.71 5.47 5.47 0 0 1 1.13 1.53 4.43 4.43 0 0 1 .43 1.55 4 4 0 0 1 0 .74 4.15 4.15 0 0 1-.17.86 5 5 0 0 1-.82 1.56 7 7 0 0 1-1.32 1.29 9.72 9.72 0 0 1-2.06 1.19A12.76 12.76 0 0 1 73 213a15 15 0 0 1-10.62-1.42z"/><path d="M62.37 208.83a7.75 7.75 0 0 1-1.68-1.33 6.23 6.23 0 0 1-.52-.62 5.11 5.11 0 0 1-.5-.87 4.5 4.5 0 0 1-.29-.86 4.27 4.27 0 0 1-.1-.86 4.61 4.61 0 0 1 0-.65 4.34 4.34 0 0 1 .22-.86 4.77 4.77 0 0 1 .41-.86 5.48 5.48 0 0 1 .5-.71 7.49 7.49 0 0 1 1.45-1.31 10.34 10.34 0 0 1 1.76-1 13 13 0 0 1 2.31-.75 16.08 16.08 0 0 1 2.95-.37h1.47c.63 0 .84.06 1.44.14a13.32 13.32 0 0 0 1.39.27 12.79 12.79 0 0 1 1.32.39 11.36 11.36 0 0 1 1.24.52c.24.1.54.3.77.42a.64.64 0 0 0-.2-.08 1.63 1.63 0 0 0-1.07.25 12.56 12.56 0 0 0-11.4-.12c-3.2 1.8-3.32 4.75-.24 6.6a12.56 12.56 0 0 0 11.4.12c3.2-1.8 3.32-4.75.24-6.6a1.63 1.63 0 0 1 1.07-.25.64.64 0 0 1 .2.08 8.71 8.71 0 0 1 1.3 1 6.18 6.18 0 0 1 1 1.15 4.62 4.62 0 0 1 .76 1.9 4.23 4.23 0 0 1-.24 2.12 5.54 5.54 0 0 1-1.29 1.93 7.41 7.41 0 0 1-.76.66c-.22.17-.53.37-.76.52a11.18 11.18 0 0 1-1.6.79 14.43 14.43 0 0 1-4.23 1 16.1 16.1 0 0 1-2.2 0 15.27 15.27 0 0 1-2.18-.27l-1.3-.3-.7-.22a11.34 11.34 0 0 1-1.96-.96z"/></g><g class="CU"><use xlink:href="#AT"/><use xlink:href="#AT" y="-2.81"/><path d="M76.1 209.13a14.87 14.87 0 0 1-13.5-.14 5 5 0 0 1-2.6-3.36c-.22 1.53.65 3.1 2.62 4.3a14.87 14.87 0 0 0 13.5.14c2.16-1.2 3.14-2.86 2.9-4.46a5.14 5.14 0 0 1-2.92 3.53zm0-2.68a13.86 13.86 0 0 1-6.66 1.33 13.51 13.51 0 0 1-6.84-1.47A5 5 0 0 1 60 203c-.22 1.53.65 3.1 2.62 4.3a14.87 14.87 0 0 0 13.5.14c2.16-1.2 3.14-2.86 2.9-4.46a5.14 5.14 0 0 1-2.92 3.48z"/></g><g fill="#ffbf00"><path d="M76.62 198.14c3.8 2.3 3.66 5.93-.3 8.13s-10.22 2.14-14-.14-3.66-5.93.3-8.13 10.2-2.15 14 .14z"/><path d="M90.85 170.3c-1-11.58-9.65-19.68-21.3-19.68h-.15c-11.65 0-20.35 8.1-21.3 19.68-.47 5.67-.57 13.83 8.76 24.78a12 12 0 0 1 2.74 7.36c.12 1.47 7.23 2.43 9.88 2.62 2.65-.2 9.76-1.15 9.88-2.62a12 12 0 0 1 2.74-7.36c9.32-10.94 9.22-19.1 8.75-24.78z"/></g><ellipse class="BM CD" cx="57.31" cy="177.21" rx="7.78" ry="5.79" transform="matrix(.319456 -.947601 .947601 .319456 -128.92 174.9)" opacity=".4"/><path d="M80.83 165.58l-.08.05v-.12a4.77 4.77 0 0 0-1.66 1.81 3.1 3.1 0 0 1-1.09 1.24 1 1 0 0 1-1.1 0 1.53 1.53 0 0 0-1.67.11 4.77 4.77 0 0 0-1.66 1.81 3.07 3.07 0 0 1-1.1 1.24 1 1 0 0 1-1.1 0 1.53 1.53 0 0 0-1.67.11 4.77 4.77 0 0 0-1.7 1.88 3.07 3.07 0 0 1-1.1 1.24 1 1 0 0 1-1.1 0 1.53 1.53 0 0 0-1.67.11 4.72 4.72 0 0 0-1.66 1.81 3.1 3.1 0 0 1-1.1 1.24 1 1 0 0 1-1.1 0 1.53 1.53 0 0 0-1.67.11v.1a1.08 1.08 0 0 0-.13 1.08l8.06 22v6.9h.9v-7.24a1.35 1.35 0 0 0-.08-.4l-7.94-21.6a1.07 1.07 0 0 1 .28.11 1.53 1.53 0 0 0 1.67-.11 4.77 4.77 0 0 0 1.64-1.77 3 3 0 0 1 1.1-1.24 1 1 0 0 1 1.1 0 1.53 1.53 0 0 0 1.67-.11 4.77 4.77 0 0 0 1.66-1.81 3.07 3.07 0 0 1 1.1-1.24 1 1 0 0 1 1.1 0 1.53 1.53 0 0 0 1.67-.11 4.74 4.74 0 0 0 1.66-1.81 3.1 3.1 0 0 1 1.1-1.24 1 1 0 0 1 1.11 0 1.53 1.53 0 0 0 1.67-.11 4.77 4.77 0 0 0 1.67-1.81 6 6 0 0 1 .4-.6l-7.82 30.82a1.83 1.83 0 0 0-.07.65v9.8h.9v-10.7L81 166.5c.13-.6.06-1-.17-.92z" class="CU"/><path d="M44.18 224.98h-5.63l.02-3.54h5.63l-.02 3.54z" fill="#081929"/><path d="M44.7 222.27c1.78 1.07 1.7 2.77-.14 3.8A7.23 7.23 0 0 1 38 226c-1.77-1.07-1.7-2.77.14-3.8a7.23 7.23 0 0 1 6.57.07z" class="Cb"/><path d="M46.93 217.85c2.93 1.76 2.83 4.57-.22 6.27a11.93 11.93 0 0 1-10.83-.12c-2.93-1.76-2.83-4.57.22-6.27a11.93 11.93 0 0 1 10.83.12z" fill="#505050"/><g fill="#6e6e6e"><path d="M35.7 223.26a6.22 6.22 0 0 1-1.35-1.07 5 5 0 0 1-.41-.5 4.09 4.09 0 0 1-.4-.69 3.58 3.58 0 0 1-.23-.69 3.4 3.4 0 0 1-.08-.69 3.72 3.72 0 0 1 0-.53 3.51 3.51 0 0 1 .17-.69 4 4 0 0 1 .67-1.18 5.65 5.65 0 0 1 1.07-1 9 9 0 0 1 3.42-1.48 12.92 12.92 0 0 1 2.36-.3h1.18c.5 0 .67.05 1.15.1 0 0 .5.07 1.1.2a10.21 10.21 0 0 1 1.06.31 9.09 9.09 0 0 1 1 .42c.2.1.43.23.6.33a.52.52 0 0 0-.16-.06 1.31 1.31 0 0 0-.86.2 10.07 10.07 0 0 0-9.14-.09c-2.58 1.44-2.66 3.8-.2 5.3a10.07 10.07 0 0 0 9.14.09c2.58-1.44 2.66-3.8.2-5.3a1.31 1.31 0 0 1 .86-.2.52.52 0 0 1 .16.06l.6.4a6 6 0 0 1 .65.56 5.07 5.07 0 0 1 .45.51 4.23 4.23 0 0 1 .44.7 3.57 3.57 0 0 1 .35 1.24 3.23 3.23 0 0 1 0 .59 3.32 3.32 0 0 1-.14.69 3.82 3.82 0 0 1-.29.69 4.42 4.42 0 0 1-.36.56 5.57 5.57 0 0 1-1.05 1 7.82 7.82 0 0 1-1.66 1 10.23 10.23 0 0 1-1.85.6 12.07 12.07 0 0 1-8.46-1.1z"/><path d="M35.7 221.06a6.2 6.2 0 0 1-1.35-1.06 4.91 4.91 0 0 1-.41-.5 4.13 4.13 0 0 1-.41-.69 3.62 3.62 0 0 1-.24-.69 3.42 3.42 0 0 1-.08-.69 3.72 3.72 0 0 1 0-.52 3.47 3.47 0 0 1 .17-.69 3.83 3.83 0 0 1 .33-.69 4.43 4.43 0 0 1 .41-.57 6 6 0 0 1 1.17-1 8.37 8.37 0 0 1 1.41-.77l.7-.27a10.26 10.26 0 0 1 1.15-.33 12.9 12.9 0 0 1 2.36-.3h1.18c.58 0 .67.05 1.15.1 0 0 .5.07 1.1.2a10.3 10.3 0 0 1 1.06.31 9.09 9.09 0 0 1 1 .42c.2.1.43.23.6.33a.51.51 0 0 0-.16-.06 1.31 1.31 0 0 0-.86.2 10.07 10.07 0 0 0-9.14-.09c-2.58 1.44-2.66 3.8-.2 5.3a10.07 10.07 0 0 0 9.14.09c2.58-1.44 2.66-3.8.2-5.3a1.31 1.31 0 0 1 .86-.2.51.51 0 0 1 .16.06l.6.4a6 6 0 0 1 .66.57 4.39 4.39 0 0 1 .88 1.21 3.56 3.56 0 0 1 .35 1.24 3.21 3.21 0 0 1 0 .59 3.33 3.33 0 0 1-.14.69 3.8 3.8 0 0 1-.29.69 4.47 4.47 0 0 1-.37.56 5.57 5.57 0 0 1-1.05 1 7.8 7.8 0 0 1-1.66 1 10.23 10.23 0 0 1-1.85.6 12.07 12.07 0 0 1-8.44-1.16z"/></g><g fill="#02567d"><path d="M35.7 218.85a6.2 6.2 0 0 1-1.35-1.07 4.91 4.91 0 0 1-.41-.5 4.1 4.1 0 0 1-.41-.69 3.64 3.64 0 0 1-.24-.69 3.42 3.42 0 0 1-.08-.69 3.69 3.69 0 0 1 0-.52 3.49 3.49 0 0 1 .17-.69 3.85 3.85 0 0 1 .33-.69 4.44 4.44 0 0 1 .41-.57 6 6 0 0 1 1.17-1 8.29 8.29 0 0 1 1.41-.77 10.44 10.44 0 0 1 1.85-.6A12.89 12.89 0 0 1 41 210h1.18c.5 0 .67.05 1.15.1 0 0 .5.07 1.1.2a10.31 10.31 0 0 1 1.06.31 9.13 9.13 0 0 1 1 .42c.2.1.43.23.6.33a.52.52 0 0 0-.16-.06 1.31 1.31 0 0 0-.86.2 10.07 10.07 0 0 0-9.14-.09c-2.58 1.44-2.66 3.8-.2 5.3a10.07 10.07 0 0 0 9.14.09c2.58-1.44 2.66-3.8.2-5.3a1.31 1.31 0 0 1 .86-.2.52.52 0 0 1 .16.06l.6.4a6 6 0 0 1 .66.57 4.39 4.39 0 0 1 .88 1.21 3.55 3.55 0 0 1 .35 1.24 3.2 3.2 0 0 1 0 .59 3.33 3.33 0 0 1-.14.69 4 4 0 0 1-.66 1.25 5.57 5.57 0 0 1-1.05 1 7.8 7.8 0 0 1-1.66 1 10.25 10.25 0 0 1-1.85.6 12.07 12.07 0 0 1-8.53-1.08z"/><path d="M35.7 216.65a6.21 6.21 0 0 1-1.35-1.07 5 5 0 0 1-.41-.5 4.1 4.1 0 0 1-.4-.69 3.61 3.61 0 0 1-.24-.69 3.43 3.43 0 0 1-.08-.69 3.71 3.71 0 0 1 0-.52 3.49 3.49 0 0 1 .17-.69 3.84 3.84 0 0 1 .33-.69 4.4 4.4 0 0 1 .4-.57 6 6 0 0 1 1.17-1 8.29 8.29 0 0 1 1.41-.77 10.45 10.45 0 0 1 1.85-.6 12.93 12.93 0 0 1 2.36-.3h1.18c.5 0 .67.05 1.15.1 0 0 .5.07 1.1.2a10.33 10.33 0 0 1 1.06.31 9.16 9.16 0 0 1 1 .42c.2.1.43.23.6.33a.51.51 0 0 0-.16-.06 1.31 1.31 0 0 0-.86.2 10.07 10.07 0 0 0-9.14-.09c-2.58 1.44-2.66 3.8-.2 5.3a10.07 10.07 0 0 0 9.14.09c2.58-1.44 2.66-3.8.2-5.3a1.31 1.31 0 0 1 .86-.2.51.51 0 0 1 .16.06 7 7 0 0 1 1 .76 5 5 0 0 1 .81.92 3.7 3.7 0 0 1 .61 1.53 3.39 3.39 0 0 1-.19 1.7 4.44 4.44 0 0 1-1 1.55 6 6 0 0 1-.61.53c-.18.14-.43.3-.6.42a9 9 0 0 1-1.28.63 11.57 11.57 0 0 1-3.39.77 12.9 12.9 0 0 1-1.77 0 12.28 12.28 0 0 1-1.75-.21c-.3-.06-.72-.17-1-.25l-.55-.18a9.09 9.09 0 0 1-1.59-.77z"/></g><path d="M46.7 221.3a11.93 11.93 0 0 1-10.83-.11 4 4 0 0 1-2.1-2.69c-.18 1.22.52 2.48 2.1 3.44a11.93 11.93 0 0 0 10.83.06c1.74-1 2.5-2.3 2.33-3.58a4.13 4.13 0 0 1-2.33 2.88z" fill="#505050"/><g class="Cb"><use xlink:href="#AU"/><use xlink:href="#AU" y="-2.15"/><path d="M46.7 214.75a11.12 11.12 0 0 1-5.34 1.07 10.84 10.84 0 0 1-5.49-1.18 4 4 0 0 1-2.1-2.69c-.18 1.22.52 2.48 2.1 3.44a11.93 11.93 0 0 0 10.83.11c1.74-1 2.5-2.3 2.33-3.58a4.13 4.13 0 0 1-2.33 2.83z"/></g><path d="M33.28 219.4a11.59 11.59 0 0 1-2.28-1.74 10.73 10.73 0 0 1-1.87-2.43 8.46 8.46 0 0 1-.56-1.17 15.52 15.52 0 0 1-.47-1.48 9.54 9.54 0 0 1-.25-2.21c0 1.95 1.26 3.9 3.77 5.4 5.17 3.1 13.74 3.2 19.13.2 2.78-1.55 4.17-3.6 4.16-5.68 0 .47-.05 1.1-.12 1.57a9.58 9.58 0 0 1-.31 1.34 10 10 0 0 1-1.39 2.86 11.29 11.29 0 0 1-2.39 2.5 13.42 13.42 0 0 1-3.09 1.77 16.71 16.71 0 0 1-7.21 1.17 17 17 0 0 1-3.89-.67 14 14 0 0 1-3.23-1.43z" class="CU"/><g fill="#e5e5e5"><path d="M45.35 192.9c2.12 1.27 2 3.3-.16 4.53a8.62 8.62 0 0 1-7.83-.08c-2.12-1.27-2-3.3.16-4.53a8.62 8.62 0 0 1 7.83.08z"/><path d="M33.65 192.35a15 15 0 0 1 4-1.5 17.29 17.29 0 0 1 3.93-.41 15.74 15.74 0 0 1 7.93 2.12c-1.05-.63-2.52-.57-4.14.33a8.62 8.62 0 0 0-7.83-.08c-2.2 1.23-2.28 3.26-.16 4.53a8.62 8.62 0 0 0 7.83.08c2.2-1.23 2.28-3.26.16-4.53 1.62-.9 3.1-1 4.14-.33l1.35.94a8.11 8.11 0 0 1 .75.65 10.8 10.8 0 0 1 1.93 2.42 10.26 10.26 0 0 1 1.08 2.64 9.47 9.47 0 0 1 .22 1.2c0 .36.07.83.07 1.2 0 2.06-1.4 4.13-4.16 5.68-5.4 3-14 2.92-19.13-.2-2.5-1.5-3.76-3.46-3.77-5.4 0-.47.05-1.1.12-1.57a12.7 12.7 0 0 1 .31-1.34 10.3 10.3 0 0 1 1-2.2 11 11 0 0 1 1.87-2.35 12.49 12.49 0 0 1 2.5-1.87z"/></g><path d="M27.87 210.36v-8.7c0 1.95 1.26 3.9 3.77 5.4 5.17 3.1 13.74 3.2 19.13.2 2.78-1.55 4.17-3.6 4.16-5.68v8.7c0 2.06-1.4 4.13-4.16 5.68-5.4 3-14 2.92-19.13-.2-2.52-1.52-3.77-3.46-3.77-5.4z" fill="#c4c4c4"/><path d="M31.6 210c5.17 3.1 13.74 3.2 19.13.2 2.78-1.55 4.17-3.6 4.16-5.68v7.87-8.7c0 2.06-1.4 4.13-4.16 5.68-5.4 3-14 2.92-19.13-.2-2.5-1.5-3.76-3.46-3.77-5.4v.88c.02 1.87 1.27 3.8 3.77 5.35z" class="CU"/><g fill="#4b97a8"><path d="M39.55 197.88l3.3-1.93.07-33.57-3.32 1.93-.06 33.57z"/><path d="M39.6 164.3l3.32-1.93A2.61 2.61 0 0 1 44 160l-3.32 1.93a2.61 2.61 0 0 0-1.09 2.39z"/></g><path d="M50.5 204.2l3.32-1.93.07-33.57-3.32 1.93-.07 33.57z" fill="#6bb8c7"/><g fill="#99c8d1"><path d="M43.37,158.15l3.32-1.93c-2-1.16-3.83-1.27-5.15-.5l-3.32,1.93c1.32-.76,3.14-.66,5.15.5Z"/><path d="M50.58,170.64l3.32-1.93a15.91,15.91,0,0,0-7.21-12.49l-3.32,1.93a15.91,15.91,0,0,1,7.21,12.49Z"/></g><path d="M43.37 158.15c-4-2.3-7.24-.45-7.26 4.14l-.1 33.57 3.5 2 .07-33.57c0-2.37 1.68-3.32 3.74-2.13a8.21 8.21 0 0 1 3.72 6.44L47 202.2l3.5 2 .07-33.57a15.91 15.91 0 0 0-7.2-12.47z" fill="#7dbac6"/><g fill="#66b3c4"><path d="M32.58 202.23l3.32-1.93.07-33.57-3.32 1.93-.07 33.57z"/><path d="M32.65,168.66,36,166.73a2.61,2.61,0,0,1,1.09-2.39l-3.32,1.93a2.61,2.61,0,0,0-1.09,2.39Z"/></g><path d="M43.55 208.56l3.32-1.92.06-33.58-3.3 1.93-.07 33.57z" fill="#8ad5e3"/><path d="M36.4 162.5l3.32-1.93c-2-1.16-3.83-1.27-5.15-.5l-3.3 1.93c1.32-.77 3.14-.66 5.15.5zm7.22 12.5l3.32-1.93a15.91 15.91 0 0 0-7.21-12.49l-3.32 1.93A15.91 15.91 0 0 1 43.62 175z" fill="#bee6ed"/><path d="M36.4 162.5c-4-2.3-7.25-.45-7.26 4.14l-.07 33.57 3.5 2 .07-33.57c0-2.37 1.68-3.32 3.74-2.13a8.21 8.21 0 0 1 3.72 6.49l-.1 33.54 3.5 2 .12-33.54a15.91 15.91 0 0 0-7.21-12.5z" fill="#9ed7e2"/><path d="M152.4 101.47l48.6 28.1c3-1.93 2.4-11.1 0-11.6 0 .03-48.66-16.64-48.6-16.5z" fill="#591422"/><path d="M124.18 117l78.22 12.56-29.6 17.12-48.63-28.1V117z" class="CF"/><path d="M153.76 99.88l48.64 28.08-29.6 17.1L124.18 117l29.58-17.1z" class="CP"/><path d="M172.8 146.67v-1.6l29.6-17.1v1.6l-29.6 17.12z" class="CF"/><path d="M127.33 109.7l71.9 17.6-27.2 15.73-44.7-25.82v-7.5z" fill="#dfddce"/><path d="M154.53 93.96l44.7 25.8-27.2 15.74-44.7-25.82 27.2-15.73z" fill="#ffdd94"/><path d="M172.04 143.02v-7.5l28.18-16.34v7.52l-28.18 16.33z" class="Cc"/><path d="M124.18 107l78.22 12.56-29.6 17.12-48.63-28.1V107z" class="CF"/><path d="M153.76 89.9l48.64 28.08-29.6 17.12-48.63-28.1 29.58-17.1z" class="CP"/><g class="CF"><path d="M172.8 136.68v-1.6l29.6-17.12v1.6l-29.6 17.12z"/><path d="M201.7 118.38l.7-.4c2.4.5 3 9.66 0 11.6l-.8-.47c2.13-2.35 1.8-9 .1-10.7z"/></g><use xlink:href="#AV" class="CN"/><path d="M173.66 133.6v-1.56l29.03-16.8v1.57l-29.03 16.8z" class="Cd"/><path d="M129.02 97.3l70.57 17.27L172.9 130l-43.88-25.34V97.3z" fill="#6ee057"/><path d="M155.7 81.86l43.88 25.34-26.7 15.44-43.88-25.34 26.7-15.44z" fill="#92ff82"/><path d="M172.9 130v-7.37l26.7-15.44v7.37L172.9 130z" class="Cc"/><path d="M172.9 125.53v-7.37l26.7-11.47v3.4l-26.7 15.44z" class="Ce"/><path d="M172.4 131.5a7.37 7.37 0 0 0 1.27 2.11L125.93 106a1.72 1.72 0 0 0-.33-.44.11.11 0 0 1-.05 0 7.31 7.31 0 0 1-.88-1.61 9.4 9.4 0 0 1-.12-6 14.44 14.44 0 0 1 1.37-3.28l47.74 27.56a14.2 14.2 0 0 0-1.38 3.3 9.47 9.47 0 0 0 .11 5.96z" class="CN"/><path d="M173.66 122.22a14.2 14.2 0 0 0-1.38 3.3L124.54 98a14.44 14.44 0 0 1 1.37-3.28zm0 11.38L125.93 106a1.72 1.72 0 0 0-.33-.44.11.11 0 0 1-.05 0 7.31 7.31 0 0 1-.88-1.61l47.73 27.55a7.37 7.37 0 0 0 1.26 2.09z" class="Cd"/><path d="M202.7 105.43l-29.03 16.8-47.74-27.56 2.14-1.24.2.3 1.05-.6v-.4l25.64-14.83 47.74 27.56z" class="CN"/><g class="Cd"><path d="M173.66 123.8v-1.57l29.03-16.8V107l-29.03 16.8z"/><use xlink:href="#AW"/></g><g fill="#5a0382"><path d="M145.6 94.6a2.82 2.82 0 0 1 2.63-.34c.4.23.47.58.18.9a2.26 2.26 0 0 1 1.83.12c.7.4.5 1-.5 1.6l-3 .68-3.17-1.42v-.35zm.84 1.3l.64-.37c.2-.1.2-.24 0-.35a.6.6 0 0 0-.59 0l-.64.37zm1.5.87l.64-.37c.25-.14.3-.3.1-.42a.74.74 0 0 0-.71.07l-.64.37z"/><use xlink:href="#AX"/><use xlink:href="#AY"/><path d="M161.43 88.53V89l1 .55v.35L157 88.35V88l1.35-.78 1.4.8-.2-1.16v-.35l1.55-.9.18 1.78 4 .5v.35z"/></g><g fill="#76e6c6"><path d="M145.6 94.95a2.82 2.82 0 0 1 2.63-.34c.4.23.47.58.18.9a2.26 2.26 0 0 1 1.83.12c.7.4.5 1-.5 1.6l-2.16 1.25-4-2.33zm.84 1.3l.64-.37c.2-.1.2-.24 0-.35a.6.6 0 0 0-.59 0l-.64.37zm1.5.87l.64-.37c.25-.14.3-.3.1-.42a.74.74 0 0 0-.71.07l-.64.37z"/><use xlink:href="#AX" y="0.35"/><use xlink:href="#AY" y="0.34"/><path d="M161.43 88.88v.48l1 .55-1.35.78-4-2.33 1.35-.78 1.4.8-.2-1.5 1.55-.9.18 1.78 4 .5-1.6.93z"/></g><g class="CI"><use xlink:href="#AV" y="-12.87"/><path d="M173.66 120.72v-1.56l29.03-16.8v1.56l-29.03 16.8z"/></g><path d="M177.03 117.67l-1.05.6-47.73-27.57 1.05-.6 47.73 27.57z" fill="url(#t)"/><path d="M129.02 84.43l70.57 17.27-26.7 15.44-43.88-25.34v-7.37z" fill="#e0b867"/><path d="M155.7 69l43.88 25.34-26.7 15.44-43.88-25.34L155.7 69z" fill="#ffdd94"/><path d="M172.9 117.14v-7.37l26.7-15.44v7.37l-26.7 15.44z" class="Cc"/><path d="M172.9 112.66v-7.37l26.7-11.48v3.4l-26.7 15.44z" class="Ce"/><path d="M172.4 118.62a7.37 7.37 0 0 0 1.27 2.11l-47.73-27.58a1.72 1.72 0 0 0-.33-.44.11.11 0 0 1-.05 0 7.31 7.31 0 0 1-.88-1.61 9.4 9.4 0 0 1-.12-6 14.44 14.44 0 0 1 1.37-3.28l47.74 27.56a14.2 14.2 0 0 0-1.38 3.3 9.47 9.47 0 0 0 .11 5.94z" class="CI"/><path d="M173.66 109.35a14.2 14.2 0 0 0-1.38 3.3l-47.74-27.57a14.44 14.44 0 0 1 1.37-3.28z" fill="url(#u)"/><path d="M173.66 120.72l-47.73-27.57a1.72 1.72 0 0 0-.33-.44.11.11 0 0 1-.05 0 7.31 7.31 0 0 1-.88-1.61l47.73 27.55a7.37 7.37 0 0 0 1.26 2.07z" fill="url(#v)"/><g class="CI"><path d="M202.7 92.56l-29.03 16.8-47.74-27.56 2.14-1.24.2.3 1.05-.6v-.42l.97-.55L154.95 65l47.74 27.56z"/><path d="M173.66 110.92v-1.57l29.03-16.8v1.56l-29.03 16.8z"/><use xlink:href="#AW" y="-12.87"/></g><path d="M177.03 107.8l-1.05.62-47.73-27.58 1.05-.6 47.73 27.56z" fill="url(#w)"/><path d="M189.26 104.6s-8.14 4.06-11.66 6.3l-3.52 2.25s15.14-8 15.18-8.56z" class="Ce"/><path d="M176.07 111.9s2.53 1.1 2.83 2.47a6.34 6.34 0 0 1 .23 1.85l1.7-2.83 2.4.28a4.76 4.76 0 0 0-.51-1.79c-.46-.86-3.2-2.1-3.2-2.1l-3.45 2.13z" class="CF"/><path d="M235.5 315a1.27 1.27 0 0 1-1.58.85L197 304.7l.73-2.43 36.88 11.15a1.27 1.27 0 0 1 .89 1.57z" class="Ca"/><path d="M233.24 311.76a1.2 1.2 0 0 1-1.49.8l-34-10.28.7-2.3 34 10.27a1.2 1.2 0 0 1 .8 1.5zm-1.9 4.84a1.44 1.44 0 0 1-1.79 1l-33.35-10.1.83-2.75 33.34 10.08a1.44 1.44 0 0 1 .96 1.75z" class="CQ"/><use xlink:href="#AZ" fill="url(#x)"/><g class="CI"><use xlink:href="#AZ" x="-1.81" y="-0.55"/><use xlink:href="#Aa"/></g><use xlink:href="#Aa" x="1.85" y="0.56" fill="url(#y)"/><use xlink:href="#Ab" class="CI"/><use xlink:href="#Ab" x="1.88" y="0.57" fill="url(#z)"/><use xlink:href="#Ac" class="CI"/><use xlink:href="#Ac" x="1.9" y="0.56" fill="url(#AA)"/><use xlink:href="#Ad" class="CI"/><use xlink:href="#Ad" x="1.9" y="0.57" fill="url(#AB)"/><path d="M173.1 312.66a3.88 3.88 0 0 1 .85 1.55 4.77 4.77 0 0 1 .17 1c.08 1.2-.07 3.55-2.34 4.4a3.66 3.66 0 0 0-2.08 1.94 3.15 3.15 0 0 0-.26 1.2 4.61 4.61 0 0 1-2.9-3.62 5.2 5.2 0 0 1 .43-2.42 2.79 2.79 0 0 1-.61-3l.1-.24a4 4 0 0 1 4-2 4 4 0 0 1 2.63 1.18z" fill="#ba5bc4"/><path d="M173.1 312.66a4 4 0 0 0-2.62-1.21 4 4 0 0 0-4 2l-.1.24a2.79 2.79 0 0 0 .61 3 5.2 5.2 0 0 0-.43 2.42 4.14 4.14 0 0 1-3.14-4 5.73 5.73 0 0 1 1.21-4 6.33 6.33 0 0 1 2.21-1.7 4.09 4.09 0 0 0 2-1.74s4.8.87 4.27 5z" fill="#9442a0"/><g class="CH CM CR"><path d="M168.7 314.5s1.46-.7 2.36.2a1.66 1.66 0 0 1 0 2.2 2.39 2.39 0 0 1-2.86.63 3.07 3.07 0 0 1-1.24-.79" stroke="#9442a0" class="CV"/><path d="M170,290s-5.52-1.68-7.18-4.78" stroke="#58600f" class="Cf"/></g><path d="M167.47 289s-3.92-1.38-5.1 1.18c.01-.03 4.8 2.74 5.1-1.18zm7.75-4.78s-5-.88-3.67-5.22c.01 0 4.12.26 3.67 5.22z" class="CW"/><g class="CT"><path d="M177.36 287.5s-4.17 4.8-2.48 8.46a2.27 2.27 0 0 0 4.2-.19c.56-1.6.48-4.16-1.72-8.27zm-.48-.15s6.26-1 7.3-4.94a2.27 2.27 0 0 0-3.36-2.53c-1.43.87-3 2.9-3.94 7.47z"/><path d="M176.78 287.4s5.32 3.45 8.73 1.26a2.27 2.27 0 0 0-.78-4.13c-1.65-.33-4.2.12-7.95 2.87z"/><path d="M176.54 287.18s1.68 6.12 5.68 6.74a2.27 2.27 0 0 0 2.16-3.61c-1-1.3-3.2-2.7-7.84-3.13z"/><path d="M177.36 287.5s-6.27-.82-7.88 3.66a2.34 2.34 0 0 0 2.35 3.16c1.74-.17 3.95-1.58 5.53-6.82z"/><path d="M177.36 287.5s-4.4.8-6.95-.8a2.23 2.23 0 0 1 1.41-4.08c1.8.18 4 1.25 5.54 4.87z"/><path d="M176.88 287.35s-2.72-3.57-2.44-6.55a2.23 2.23 0 0 1 4.28-.6c.65 1.68.7 4.14-1.84 7.15z"/></g><circle cx="177.36" cy="287.41" r="1.24" transform="matrix(.289533 -.957168 .957168 .289533 -149.09 373.98)" class="CD"/><path d="M166.94,303.58a20.61,20.61,0,0,0-12.29,4.74" stroke="#58600f" class="CH CM CR Cf"/><path d="M161.42 304.57s-4.9.5-4.93-3.07c0 0 5.26-.58 4.93 3.07zm-2.5.96s-4.05 2.5-1.42 6.47c0 0 3.84-2.82 1.42-6.47z" class="CQ"/><path d="M176 303s2.3 4.7 7.38 1.85A5.24 5.24 0 0 0 176 303z" fill="#79a140"/><path d="M176 303s.72-5.2 5.34-5.06c.01.06.52 5.95-5.34 5.06z" class="CW"/><g class="CF"><path d="M170.17 302.12s-5.1-2.7-4-7a1.67 1.67 0 0 1 2.2-1.12c1.7.7 3.77 2.58 1.8 8.12z"/><path d="M170.48 302.7s-5.2 2.5-7.95-1a1.67 1.67 0 0 1 .41-2.44c1.5-.9 4.26-1.44 7.54 3.44z"/><path d="M170.6 302.63s-.5 5.75-4.86 6.36a1.67 1.67 0 0 1-1.89-1.59c-.05-1.77.88-4.4 6.75-4.77z"/><path d="M170.44 302.48s4.1 4.06 1.8 7.8a1.67 1.67 0 0 1-2.43.44c-1.4-1.1-2.8-3.5.64-8.24z"/><path d="M170.34 302.44s5.6-1.37 7.58 2.56a1.67 1.67 0 0 1-.9 2.3c-1.66.62-4.47.6-6.68-4.86z"/><path d="M170.37 302.74s2.4-5.25 6.7-4.36a1.67 1.67 0 0 1 1.25 2.14c-.55 1.67-2.33 3.86-7.96 2.22z"/><path d="M170.28 302.43s-1.45-5.6 2.45-7.62a1.67 1.67 0 0 1 2.32.86c.63 1.65.65 4.47-4.77 6.76z"/></g><circle cx="170.51" cy="302.6" r="1.57" transform="matrix(.289533 -.957168 .957168 .289533 -168.49 378.22)" class="CD"/><path d="M188.45 269s.2-4.2 1.73-5.7" class="CH CM CR CV Cg"/><path d="M185.56 266.54c-.6.43-1.72.8-3.15-.4a3.49 3.49 0 0 1-.69-.81 4.17 4.17 0 0 1-.66-1.59.39.39 0 0 1 .4-.43.64.64 0 0 1 .32.09 1.22 1.22 0 0 1-.32-.8.72.72 0 0 1 .71-.71 4.26 4.26 0 0 1 3.56 1.65 2.64 2.64 0 0 1 .56 1.87 1.68 1.68 0 0 1-.73 1.14zm4.04-4.08c0-.9.46-2.14 2.7-3a.68.68 0 0 1 .91.4 1.15 1.15 0 0 1 0 .21 2.21 2.21 0 0 1 .69.14.84.84 0 0 1 .42 1.19c-.5.9-1.6 2.5-3.34 2.5a1.42 1.42 0 0 1-1.39-1.44z" class="CF"/><path d="M189.3 273.08a7.31 7.31 0 0 0-3.68-6.93" class="CH CM CR CV Cg"/><path d="M189 282.6s-4.86 1.84-8.18-1c0 0 2-4.73 8.2-2.22a6.65 6.65 0 0 1 1.6.9l.22.18a.84.84 0 0 1-.2 1.39 14.8 14.8 0 0 1-1.65.75z" class="CW"/><path d="M188.57 279.16s-7.22 2.1-8.28-4c0-.01 7.06-3.05 8.28 4z" class="CQ"/><path d="M191.58 280.84s-6-2.2-7-6.35a2.79 2.79 0 0 1 3.9-3.19c1.92.92 4.23 2.9 5.7 7.08 0 0-3.38-7.93.54-11.33a3 3 0 0 1 4.94 2.24c.1 2.2-.6 5.45-3.4 9.94 0 0 4.8-5.4 9.7-4.24a3.28 3.28 0 0 1 1.59 5.38c-1.52 1.66-4.32 3.16-9.4 2.45 0 0 5.77 3.43 4.13 7.7a3.67 3.67 0 0 1-6.24 1c-1.1-1.37-1.92-3.54-1.35-7 0 0-2.4 5.65-7.3 4.66a3 3 0 0 1-2.11-4.33c.85-1.74 2.64-3.63 6.33-4z" class="CN"/><circle cx="195.11" cy="281.53" r="1.8" transform="matrix(.289533 -.957168 .957168 .289533 -130.85 386.79)" class="CD"/><path d="M195.43,281s2.8-7.95,10.55-10.42" stroke="#f7bf2a" class="CH CM CR CV"/><g fill="#f7bf2a"><circle cx="202.25" cy="274.25" r=".64" transform="matrix(.997972 -.063661 .063661 .997972 -17.05 13.43)"/><circle cx="198.1" cy="274.39" r=".68" transform="matrix(.997972 -.063661 .063661 .997972 -17.07 13.17)"/><circle cx="199.93" cy="276.3" r=".86" transform="matrix(.997972 -.063661 .063661 .997972 -17.19 13.29)"/><circle cx="201.58" cy="270.83" r=".72" transform="matrix(.997972 -.063661 .063661 .997972 -16.84 13.39)"/><circle cx="199.17" cy="272.12" r=".79" transform="matrix(.997972 -.063661 .063661 .997972 -16.92 13.23)"/></g><g class="CH CM CR CV Cg"><path d="M176.4 317.84a7.49 7.49 0 0 0 2.16 8.25"/><path d="M176.8 323.84s-.35 3.7-2.68 4.63"/></g><path d="M174.37 329.13c0 .74-.3 1.87-2.1 2.38a3.49 3.49 0 0 1-1.06.12 4.17 4.17 0 0 1-1.69-.35.39.39 0 0 1-.13-.57.64.64 0 0 1 .25-.22 1.22 1.22 0 0 1-.84-.18.72.72 0 0 1-.19-1 4.26 4.26 0 0 1 3.37-2 2.64 2.64 0 0 1 1.86.59 1.68 1.68 0 0 1 .54 1.23zm3.53-1.13a5 5 0 0 0 2.07 2.39.71.71 0 0 0 1.1-.45 1 1 0 0 0 0-.31 2.36 2.36 0 0 0 .94.09.66.66 0 0 0 .51-.93 8.38 8.38 0 0 0-1.78-2.65 1.75 1.75 0 0 0-2.84 1.86z" fill="#f8899c"/><path d="M184.23 309.42a6.83 6.83 0 0 0 .73-1.82 2.94 2.94 0 0 0-.19-1.92 2.27 2.27 0 0 0-3.22-.91 6.25 6.25 0 0 1-1 .66c-1 .4-2.15-.58-3.22-.34a1.89 1.89 0 0 0-1.32 1.45 3.75 3.75 0 0 0 .2 2 7.71 7.71 0 0 0 2.67 3.67 4.59 4.59 0 0 0 2.19 1.09c.7 0 1.16-.86 1.52-1.34a20.66 20.66 0 0 0 1.64-2.54z" class="CE"/><path d="M179 309.94a7.76 7.76 0 0 0-.79-1.7 2.61 2.61 0 0 0-1.46-1.11 1.94 1.94 0 0 0-2.2 2.75 1.15 1.15 0 0 1 .17.44c0 .33-.32.56-.6.72a5.47 5.47 0 0 0-1.94 1.67 2.45 2.45 0 0 0-.21 2.45 2.4 2.4 0 0 0 1.44 1.08 5 5 0 0 0 1.83.12 11.16 11.16 0 0 0 3.79-1c.4-.2 1.35-.52 1.5-1s-.44-1.48-.6-1.94zm8 2.76a6.83 6.83 0 0 0 1.85-.66 2.94 2.94 0 0 0 1.31-1.41 2.27 2.27 0 0 0-1.45-3 6.25 6.25 0 0 1-1.17-.32c-1-.5-1-2-1.88-2.64a1.89 1.89 0 0 0-2 0 3.75 3.75 0 0 0-1.39 1.49 7.71 7.71 0 0 0-1 4.43 4.59 4.59 0 0 0 .63 2.36c.45.52 1.4.3 2 .25a20.66 20.66 0 0 0 3.1-.5z" class="CG"/><path d="M184.2 318a5.86 5.86 0 0 0 2.53 1.59 2.33 2.33 0 0 0 2.62-1c.44-.88.07-2 .25-2.92a8.74 8.74 0 0 1 .83-2 2.39 2.39 0 0 0 .14-2.06 1.85 1.85 0 0 0-1.12-.86 4.07 4.07 0 0 0-1.43-.11 10.44 10.44 0 0 0-5.77 2.22c-.23.18-.7.45-.8.73-.24.57.54 1.73.84 2.2a12.23 12.23 0 0 0 1.92 2.22z" class="CE"/><path d="M180.07 321.26a3.41 3.41 0 0 0 .76 1.55 1.51 1.51 0 0 0 1.59.43c.52-.2.82-.77 1.28-1.1.94-.7 2.45-.37 3.2-1.27a1.83 1.83 0 0 0 .26-1.68 4.16 4.16 0 0 0-.92-1.5 12 12 0 0 0-4.45-3.19c-.33-.13-.65-.35-.95-.1a3.09 3.09 0 0 0-.5 1.12 9.82 9.82 0 0 0-.55 2.66 9.65 9.65 0 0 0 .28 3.07z" class="CG"/><path d="M178.46 314.72a13 13 0 0 0-2.26 0 4.35 4.35 0 0 0-2.11.74 2.64 2.64 0 0 0-1.12 1.89 1.9 1.9 0 0 0 1 1.85c.5.23 1.15.2 1.56.58a2.4 2.4 0 0 1 .51 1.19 3.88 3.88 0 0 0 1.4 2.19 2.37 2.37 0 0 0 2.5.21 2.51 2.51 0 0 0 1-1.27 6 6 0 0 0 .33-1.62 19.66 19.66 0 0 0-.09-4.47c-.06-.44-.08-.92-.56-1.1a9 9 0 0 0-2.16-.19z" class="CE"/><circle cx="181.43" cy="313.6" r="1.92" transform="matrix(.289533 -.957168 .957168 .289533 -171.26 396.48)" class="CD"/><path d="M190.6 308.6s4.86 6.6 10.77 2.26a7.74 7.74 0 0 1-2.2-1.69 9.88 9.88 0 0 0-2.21-1.74c-1.77-1-4.48-1.78-6.36 1.17z" class="CW"/><path d="M190.6 308.6s-4.36 6.75 2.3 11.35a6.24 6.24 0 0 1 1.13-3.11 7.67 7.67 0 0 0 .92-2.18c.5-2 .4-5.1-4.34-6.06z" class="CQ"/><path d="M199 298.1s4-3.46 7.35-.3c.03 0-3.48 4.8-7.35.3z" class="CW"/><path d="M200.34 297.06s5.14 1.06 6-4.7a5.24 5.24 0 0 0-6 4.71z" class="CQ"/><path d="M193.52 296.8c1.78-.17 2.54.6 2.84 1.43a3 3 0 0 1 .09.33 3.63 3.63 0 0 1-.61 2.83A4.58 4.58 0 0 1 194 303a3.58 3.58 0 0 1-1.27.34 3.61 3.61 0 0 1-3-1.18 2.4 2.4 0 0 1-.49-2.63 10.8 10.8 0 0 0 .84-4.88 4.83 4.83 0 0 1 1.33.11 2.57 2.57 0 0 1 2.11 2.04z" class="CT"/><path d="M193.52,296.8a2.72,2.72,0,0,0-1.63,3" stroke="#b5311c" stroke-miterlimit="10" class="CH CM Cf"/><g class="CF"><path d="M197.16 294.7a2.85 2.85 0 0 1 .13.87 4.87 4.87 0 0 1-.94 2.67c-.3-.84-1.06-1.6-2.84-1.43a2.57 2.57 0 0 0-2-2.06 2.79 2.79 0 0 1 1.41-1.88 2.92 2.92 0 0 1 .87-.28 3.11 3.11 0 0 1 3.37 2.11z"/><path d="M193.74 292.58a2.92 2.92 0 0 0-.87.28 2.79 2.79 0 0 0-1.41 1.88 4.83 4.83 0 0 0-1.33-.11 10.8 10.8 0 0 1-.84 4.88 2.4 2.4 0 0 0 .49 2.63 3.52 3.52 0 0 0 1.9 1.11 2.67 2.67 0 0 1-2 .79 2.51 2.51 0 0 1-2.18-1.93 6.65 6.65 0 0 0-2.06-3 6.19 6.19 0 0 1 .12-1.15 4.68 4.68 0 0 1 .9-2 11.3 11.3 0 0 1 .35-1.29c1.98-6.13 6.93-2.1 6.93-2.1z"/><path d="M185.56 297.9a6.19 6.19 0 0 0-.12 1.15 6.65 6.65 0 0 1 2.06 3 2.51 2.51 0 0 0 2.18 1.93 2.67 2.67 0 0 0 2-.79 3.54 3.54 0 0 0 1.06.07 5.88 5.88 0 0 1-.42 1.67 4.87 4.87 0 0 1-2.48 2.58 7.47 7.47 0 0 1-3.15.69c0-.76-1.1-1.77-1.74-2.3a5.49 5.49 0 0 1-1.17-1.3 4.27 4.27 0 0 1-.69-2.85 6.51 6.51 0 0 1 2.47-3.84zm13.44-2.8a3.37 3.37 0 0 1 1.86 3.38 6.85 6.85 0 0 1-.07 1 9 9 0 0 1-.76 2.43 10.59 10.59 0 0 0-.77 2.95 1.38 1.38 0 0 0-1.61.18c-3 2.6-5 .33-5.22 0a5.88 5.88 0 0 0 .42-1.67A3.58 3.58 0 0 0 194 303a4.58 4.58 0 0 0 1.8-1.58 3.63 3.63 0 0 0 .61-2.83 3 3 0 0 0-.09-.33 4.87 4.87 0 0 0 .94-2.67 2.85 2.85 0 0 0-.13-.87 4.94 4.94 0 0 1 1.87.37z"/></g><g class="CT"><path d="M195.92 285.4a10.3 10.3 0 0 0-.12 1.89 6 6 0 0 0 .19 1.34 7.51 7.51 0 0 0 1.69 3.11 5.11 5.11 0 0 1 1.28 3.36 4.94 4.94 0 0 0-1.79-.4 3.11 3.11 0 0 0-3.42-2.12s-5-4-6.94 2l-.24-.2a3.48 3.48 0 0 1-1.2-2.23 3.82 3.82 0 0 1 .4-2.26c1.78-3.43 4.68-2.8 4.68-2.8a8.85 8.85 0 0 0 5.47-1.69z"/><path d="M200.77 292.16a4.36 4.36 0 0 1 0 6.31 3.37 3.37 0 0 0-1.86-3.38 5.11 5.11 0 0 0-1.28-3.36 7.51 7.51 0 0 1-1.69-3.11c.5.1 3.96.84 4.83 3.54zm-15.4-.01a3.48 3.48 0 0 0 1.2 2.23l.24.2a11.3 11.3 0 0 0-.35 1.29 4.68 4.68 0 0 0-.9 2 6.51 6.51 0 0 0-2.45 3.89s-2.48-1.13-1.7-5.5a5.49 5.49 0 0 1 1.75-3.17 3.65 3.65 0 0 1 2.21-.94zM197.58 305c.06 4.13-3.43 3.52-3.43 3.52-1.67 1.4-4.28-.94-4.28-.94a4.87 4.87 0 0 0 2.48-2.58c.27.32 2.26 2.58 5.23 0z"/></g></svg>